<?xml version="1.0" standalone="no"?>
<!DOCTYPE svg PUBLIC "-//W3C//DTD SVG 1.1//EN" "http://www.w3.org/Graphics/SVG/1.1/DTD/svg11.dtd" >
<svg xmlns="http://www.w3.org/2000/svg">
<metadata></metadata>
<defs>
<font id="akzidenz-grotesk_nextXLt" horiz-adv-x="808" >
<font-face units-per-em="2048" ascent="1536" descent="-512" />
<missing-glyph horiz-adv-x="382" />
<glyph unicode="&#xfb01;" horiz-adv-x="923" d="M14 918v73h197v236q0 119 56.5 175t156.5 56q52 0 102 -16v-78q-51 22 -104 22q-68 0 -98.5 -37.5t-30.5 -131.5v-226h225v-73h-225v-918h-82v918h-197zM690 1294v152h84v-152h-84zM692 0v991h80v-991h-80z" />
<glyph unicode="&#xfb02;" horiz-adv-x="923" d="M14 918v73h193v236q0 231 209 231q50 0 100 -16v-78q-51 22 -102 22q-67 0 -97 -37.5t-30 -131.5v-226h221v-73h-221v-918h-80v918h-193zM694 0v1446h78v-1446h-78z" />
<glyph unicode="&#x17f;t" horiz-adv-x="937" d="M154 0v1210q0 77 13.5 121t43.5 74q53 53 156 53q52 0 102 -16v-78q-51 22 -104 22q-67 0 -97 -34q-32 -38 -32 -140v-1212h-82zM416 918v73h194v369h80v-369h217v-73h-217v-709q0 -86 29.5 -118t91.5 -32q47 0 98 21v-78q-62 -16 -106 -16q-106 0 -149.5 51.5 t-43.5 181.5v699h-194z" />
<glyph unicode="&#x17f;i" horiz-adv-x="784" d="M154 0v1210q0 77 13.5 121t43.5 74q53 53 156 53q50 0 94 -14v-78q-47 20 -96 20q-67 0 -97 -34q-32 -38 -32 -140v-1212h-82zM551 1294v152h84v-152h-84zM553 0v991h80v-991h-80z" />
<glyph unicode="&#x17f;&#x17f;i" horiz-adv-x="1185" d="M154 0v1210q0 77 13.5 121t43.5 74q53 53 156 53q52 0 102 -16v-78q-51 22 -104 22q-67 0 -97 -34q-32 -38 -32 -140v-1212h-82zM555 0v1210q0 77 13.5 121t43.5 74q53 53 156 53q50 0 94 -14v-78q-47 20 -96 20q-66 0 -96 -34q-33 -39 -33 -140v-1212h-82zM952 1294v152 h84v-152h-84zM954 0v991h80v-991h-80z" />
<glyph unicode="&#x17f;l" horiz-adv-x="784" d="M154 0v1210q0 77 13.5 121t43.5 74q53 53 156 53q50 0 94 -14v-78q-47 20 -96 20q-67 0 -97 -34q-32 -38 -32 -140v-1212h-82zM553 0v1446h80v-1446h-80z" />
<glyph unicode="&#x17f;&#x17f;l" horiz-adv-x="1185" d="M154 0v1210q0 77 13.5 121t43.5 74q53 53 156 53q52 0 102 -16v-78q-51 22 -104 22q-67 0 -97 -34q-32 -38 -32 -140v-1212h-82zM555 0v1210q0 77 13.5 121t43.5 74q53 53 156 53q50 0 94 -14v-78q-47 20 -96 20q-66 0 -96 -34q-33 -39 -33 -140v-1212h-82zM954 0v1446 h80v-1446h-80z" />
<glyph unicode="&#x17f;b" horiz-adv-x="1441" d="M154 0v1210q0 77 13.5 121t43.5 74q53 53 156 53q50 0 94 -14v-78q-47 20 -96 20q-67 0 -97 -34q-32 -38 -32 -140v-1212h-82zM553 0v1446h80v-637q116 199 340 199q177 0 278 -136.5t101 -377.5q0 -247 -108 -378.5t-286 -131.5q-221 0 -325 192v-176h-80zM633 516 q0 -217 85.5 -338t237.5 -121q148 0 231 116.5t83 328.5q0 202 -83 318t-224 116q-148 0 -239 -115t-91 -305z" />
<glyph unicode="&#x17f;&#x17f;b" horiz-adv-x="1843" d="M154 0v1210q0 77 13.5 121t43.5 74q53 53 156 53q52 0 102 -16v-78q-51 22 -104 22q-67 0 -97 -34q-32 -38 -32 -140v-1212h-82zM555 0v1210q0 77 13.5 121t43.5 74q53 53 156 53q50 0 94 -14v-78q-47 20 -96 20q-66 0 -96 -34q-33 -39 -33 -140v-1212h-82zM954 0v1446 h80v-637q116 199 340 199q177 0 278 -136.5t101 -377.5q0 -247 -107.5 -378.5t-285.5 -131.5q-222 0 -326 192v-176h-80zM1034 516q0 -216 86 -337.5t238 -121.5q148 0 230.5 116.5t82.5 328.5q0 202 -83 318t-224 116q-148 0 -239 -115t-91 -305z" />
<glyph unicode="&#x17f;h" horiz-adv-x="1429" d="M154 0v1210q0 77 13.5 121t43.5 74q53 53 156 53q50 0 94 -14v-78q-47 20 -96 20q-67 0 -97 -34q-32 -38 -32 -140v-1212h-82zM553 0v1446h80v-651q53 103 143 157t199 54q182 0 260 -121q51 -80 51 -244v-641h-80v618q0 161 -49 234q-56 78 -194 78q-68 0 -133 -29 t-113 -92q-47 -63 -65.5 -131.5t-18.5 -157.5v-520h-80z" />
<glyph unicode="&#x17f;&#x17f;h" horiz-adv-x="1830" d="M154 0v1210q0 77 13.5 121t43.5 74q53 53 156 53q52 0 102 -16v-78q-51 22 -104 22q-67 0 -97 -34q-32 -38 -32 -140v-1212h-82zM555 0v1210q0 77 13.5 121t43.5 74q53 53 156 53q50 0 94 -14v-78q-47 20 -96 20q-66 0 -96 -34q-33 -39 -33 -140v-1212h-82zM954 0v1446 h80v-651q53 103 143 157t199 54q182 0 260 -121q52 -82 52 -244v-641h-80v618q0 161 -49 234q-56 78 -195 78q-68 0 -133 -29t-113 -92q-47 -63 -65.5 -131.5t-18.5 -157.5v-520h-80z" />
<glyph unicode="&#x17f;k" horiz-adv-x="1316" d="M154 0v1210q0 77 13.5 121t43.5 74q53 53 156 53q50 0 94 -14v-78q-47 20 -96 20q-67 0 -97 -34q-32 -38 -32 -140v-1212h-82zM553 0v1446h80v-1026l524 571h103l-355 -387l412 -604h-100l-367 547l-217 -228v-319h-80z" />
<glyph unicode="&#x17f;&#x17f;k" horiz-adv-x="1718" d="M154 0v1210q0 77 13.5 121t43.5 74q53 53 156 53q52 0 102 -16v-78q-51 22 -104 22q-67 0 -97 -34q-32 -38 -32 -140v-1212h-82zM555 0v1210q0 77 13.5 121t43.5 74q53 53 156 53q50 0 94 -14v-78q-47 20 -96 20q-66 0 -96 -34q-33 -39 -33 -140v-1212h-82zM954 0v1446 h80v-1026l525 571h102l-354 -387l411 -604h-100l-367 547l-217 -228v-319h-80z" />
<glyph unicode="&#x17f;&#x17f;" horiz-adv-x="802" d="M154 0v1210q0 77 13.5 121t43.5 74q53 53 156 53q52 0 102 -16v-78q-51 22 -104 22q-67 0 -97 -34q-32 -38 -32 -140v-1212h-82zM555 0v1210q0 77 13.5 121t43.5 74q53 53 156 53q52 0 102 -16v-78q-51 22 -104 22q-66 0 -96 -34q-33 -39 -33 -140v-1212h-82z" />
<glyph unicode="&#x17f;&#x17f;t" horiz-adv-x="1339" d="M154 0v1210q0 77 13.5 121t43.5 74q53 53 156 53q52 0 102 -16v-78q-51 22 -104 22q-67 0 -97 -34q-32 -38 -32 -140v-1212h-82zM555 0v1210q0 77 13.5 121t43.5 74q53 53 156 53q52 0 102 -16v-78q-51 22 -104 22q-66 0 -96 -34q-33 -39 -33 -140v-1212h-82zM817 918v73 h195v369h80v-369h217v-73h-217v-709q0 -86 29.5 -118t90.5 -32q48 0 99 21v-78q-62 -16 -107 -16q-105 0 -148.5 51t-43.5 182v699h-195z" />
<glyph horiz-adv-x="0" />
<glyph horiz-adv-x="682" />
<glyph unicode=" "  horiz-adv-x="382" />
<glyph unicode="&#x09;" horiz-adv-x="382" />
<glyph unicode="&#xa0;" horiz-adv-x="382" />
<glyph unicode="!" horiz-adv-x="460" d="M227 1446h101q0 -56 -8 -488t-13 -585h-57q-7 165 -15 586.5t-8 486.5zM229 0v203h99v-203h-99z" />
<glyph unicode="&#x22;" horiz-adv-x="684" d="M113 1446h123l-35 -567h-51zM446 1446h125l-34 -567h-52z" />
<glyph unicode="#" horiz-adv-x="1366" d="M156 537v67h323l35 244h-307v67h317l68 496h72l-70 -496h254l70 496h71l-69 -496h290v-67h-301l-35 -244h289v-67h-297l-75 -537h-72l76 537h-254l-76 -537h-72l76 537h-313zM551 604h252l35 244h-254z" />
<glyph unicode="$" horiz-adv-x="1118" d="M80 340l76 49q55 -294 362 -313v639l-37 10q-182 52 -265 133t-83 217q0 143 106.5 235.5t278.5 98.5v174h68v-174q148 -6 244.5 -71t150.5 -193l-68 -45q-52 126 -128.5 179.5t-198.5 59.5v-559l37 -10q205 -58 296 -141t91 -238q0 -167 -116 -272t-308 -117v-205h-68 v203q-183 10 -294.5 101.5t-143.5 238.5zM217 1077q0 -110 70 -172t231 -110v544q-134 -5 -217.5 -77t-83.5 -185zM586 76q160 12 250 94.5t90 216.5q0 122 -72.5 187.5t-267.5 121.5v-620z" />
<glyph unicode="%" horiz-adv-x="1773" d="M84 967q0 212 87.5 335t236.5 123q147 0 232 -123.5t85 -336.5q0 -211 -86 -329t-238 -118t-234.5 118t-82.5 331zM160 973q0 -187 64 -290t177 -103q116 0 182 100t66 283q0 185 -65.5 293t-177.5 108t-179 -106t-67 -285zM586 0l528 1411h80l-530 -1411h-78zM1049 434 q0 212 87 335.5t236 123.5q147 0 232.5 -124t85.5 -337q0 -211 -86 -328.5t-238 -117.5t-234.5 117.5t-82.5 330.5zM1124 440q0 -186 64.5 -289.5t177.5 -103.5q116 0 182 100t66 283q0 185 -66 293t-178 108t-179 -106t-67 -285z" />
<glyph unicode="&#x26;" horiz-adv-x="1249" d="M104 367q0 150 80 257.5t281 221.5q-77 112 -107 188t-30 158q0 113 77 182.5t201 69.5q117 0 186.5 -63.5t69.5 -168.5q0 -110 -69 -198t-222 -178l353 -523q83 143 104 310l84 -39q-60 -213 -139 -338q79 -112 117.5 -145t107.5 -33v-78q-34 0 -50 0.5t-42 7t-45 20.5 q-11 8 -20.5 16t-16.5 14.5t-17 17.5t-14.5 16t-16 20.5t-15.5 20.5t-18 25t-19 26q-155 -197 -406 -197q-181 0 -297.5 110t-116.5 280zM190 375q0 -147 94.5 -234.5t247.5 -87.5q215 0 345 187l-375 553q-171 -94 -241.5 -195t-70.5 -223zM414 1188q0 -70 25 -135t93 -168 q248 140 248 319q0 77 -48.5 120.5t-131.5 43.5q-85 0 -135.5 -46.5t-50.5 -133.5z" />
<glyph unicode="'" horiz-adv-x="342" d="M113 1446h116l-32 -567h-52z" />
<glyph unicode="(" horiz-adv-x="759" d="M197 616q0 294 108.5 542t331.5 409l22 -33q-370 -347 -370 -913q0 -287 94 -538.5t272 -410.5l-22 -32q-114 73 -201.5 190.5t-137 253t-73.5 269.5t-24 263z" />
<glyph unicode=")" horiz-adv-x="757" d="M98 -328q371 348 371 914q0 286 -94.5 537.5t-272.5 410.5l23 33q114 -73 201.5 -191t137 -253t73.5 -269.5t24 -263.5q0 -293 -108.5 -541t-331.5 -409z" />
<glyph unicode="*" horiz-adv-x="616" d="M47 1233l21 65l215 -73l-9 241h74l-8 -239l209 80l20 -62l-211 -71l138 -189l-60 -41l-125 199l-137 -199l-57 43l149 184z" />
<glyph unicode="+" horiz-adv-x="1482" d="M199 592v65h508v514h69v-514h508v-65h-508v-514h-69v514h-508z" />
<glyph unicode="," horiz-adv-x="358" d="M111 -223q37 37 51 79t14 115v29h-51v203h104v-215q0 -93 -14.5 -139t-58.5 -103z" />
<glyph unicode="-" horiz-adv-x="727" d="M100 549v78h527v-78h-527z" />
<glyph unicode="." horiz-adv-x="358" d="M131 0v203h98v-203h-98z" />
<glyph unicode="/" horiz-adv-x="841" d="M27 -356l680 1902h79l-682 -1902h-77z" />
<glyph unicode="0" horiz-adv-x="1083" d="M92 700q0 347 118.5 540.5t336.5 193.5q217 0 332.5 -195.5t115.5 -544.5q0 -341 -120.5 -529t-337.5 -188q-218 0 -331.5 186.5t-113.5 536.5zM178 711q0 -318 91.5 -488t269.5 -170q179 0 274.5 167.5t95.5 471.5q0 320 -92.5 493t-271.5 173q-174 0 -270.5 -171 t-96.5 -476z" />
<glyph unicode="1" horiz-adv-x="1083" d="M262 1133v73q241 21 268 217h68v-1423h-82v1229q-94 -84 -254 -96z" />
<glyph unicode="2" horiz-adv-x="1083" d="M115 1032q0 182 119.5 292t318.5 110q198 0 312 -117t114 -318q0 -88 -20 -166.5t-53.5 -142.5t-90.5 -132t-116 -123t-146 -128q-112 -91 -309 -235q88 2 723 2v-74h-838v72l346 272q106 84 174 149.5t127.5 146t87 170.5t27.5 196q0 164 -94 258t-254 94 q-158 0 -252 -88.5t-94 -241.5q0 -71 32 -166l-92 17q-22 74 -22 153z" />
<glyph unicode="3" horiz-adv-x="1083" d="M106 326l78 34q56 -307 344 -307q154 0 246 91t92 231q0 319 -403 319q-82 0 -107 -2v78q23 -2 60 -2q192 0 301.5 81.5t109.5 231.5q0 130 -82 203.5t-213 73.5q-124 0 -207 -70.5t-110 -206.5l-78 27q36 157 142.5 241.5t259.5 84.5q171 0 270.5 -96t99.5 -261 q0 -139 -75 -222.5t-226 -119.5q153 -6 249.5 -101.5t96.5 -260.5q0 -174 -120 -285t-310 -111q-169 0 -278.5 94t-139.5 255z" />
<glyph unicode="4" horiz-adv-x="1083" d="M68 348v74l608 989h106v-993h252v-70h-252v-348h-80v348h-634zM160 418h542v588q0 170 7 327q-27 -46 -94 -161t-105 -177z" />
<glyph unicode="5" horiz-adv-x="1083" d="M137 317l82 39q36 -303 311 -303q161 0 255 109t94 301q0 190 -87 298.5t-237 108.5q-108 0 -184.5 -52t-112.5 -152l-76 14l47 731h656v-74h-584l-39 -542q110 151 311 151q180 0 287 -130.5t107 -348.5q0 -226 -119 -358t-322 -132q-157 0 -258.5 88.5t-130.5 251.5z " />
<glyph unicode="6" horiz-adv-x="1083" d="M123 664q0 376 122.5 573t362.5 197q140 0 226.5 -70.5t134.5 -220.5l-80 -41q-24 128 -97 191t-186 63q-195 0 -297 -166t-108 -520q53 123 159.5 189.5t239.5 66.5q181 0 287 -129t106 -346q0 -218 -115 -346t-311 -128q-219 0 -331.5 174t-112.5 513zM227 477 q0 -192 96 -308t252 -116q150 0 242 107t92 286q0 189 -87.5 296.5t-239.5 107.5q-153 0 -254 -107t-101 -266z" />
<glyph unicode="7" horiz-adv-x="1083" d="M96 1337v74h873v-70q-221 -332 -330.5 -637t-144.5 -704h-93q53 739 478 1337h-783z" />
<glyph unicode="8" horiz-adv-x="1083" d="M109 375q0 137 75.5 233t216.5 129q-120 32 -187 116.5t-67 221.5q0 160 112 259.5t292 99.5q172 0 278.5 -101.5t106.5 -265.5q0 -253 -264 -330q146 -19 225.5 -116t79.5 -250q0 -178 -120 -286t-318 -108q-194 0 -312 109t-118 289zM195 377q0 -149 95.5 -236.5 t256.5 -87.5q156 0 250 86t94 230q0 146 -95.5 238.5t-252.5 92.5q-154 0 -251 -90.5t-97 -232.5zM231 1075q0 -135 84.5 -218t225.5 -83q134 0 222.5 84t88.5 209q0 132 -85 211.5t-220 79.5q-144 0 -230 -76t-86 -207z" />
<glyph unicode="9" horiz-adv-x="1083" d="M90 963q0 217 116.5 344t309.5 127q220 0 332.5 -173t112.5 -511q0 -773 -482 -773q-148 0 -234.5 70.5t-133.5 222.5l79 41q49 -256 287 -256q200 0 300 165.5t106 522.5q-53 -123 -159.5 -189.5t-240.5 -66.5q-181 0 -287 129.5t-106 346.5zM174 967 q0 -193 86.5 -298.5t241.5 -105.5q153 0 253.5 107t100.5 266q0 192 -96 307t-252 115q-150 0 -242 -106t-92 -285z" />
<glyph unicode=":" horiz-adv-x="460" d="M231 0v203h99v-203h-99zM231 788v203h99v-203h-99z" />
<glyph unicode=";" horiz-adv-x="460" d="M211 -223q37 37 51 79t14 115v29h-51v203h105v-215q0 -92 -15 -138t-59 -104zM231 788v203h99v-203h-99z" />
<glyph unicode="&#x3c;" horiz-adv-x="1482" d="M242 555v84l938 485v-77l-875 -447l875 -434v-80z" />
<glyph unicode="=" horiz-adv-x="1482" d="M199 395v74h1085v-74h-1085zM199 754v69h1085v-69h-1085z" />
<glyph unicode="&#x3e;" horiz-adv-x="1482" d="M303 86v76l873 448l-873 432v82l938 -469v-84z" />
<glyph unicode="?" horiz-adv-x="1042" d="M168 1059q0 184 108.5 296.5t290.5 112.5q167 0 268 -96t101 -256q0 -100 -51 -195t-162 -206l-74 -74q-61 -61 -82.5 -107t-21.5 -118v-49h-80v47q0 85 25.5 140.5t109.5 139.5l66 66q97 97 143.5 180.5t46.5 167.5q0 131 -80.5 208t-212.5 77q-145 0 -229 -90t-84 -248 q0 -33 6 -80l-82 16q-6 37 -6 68zM457 0v203h98v-203h-98z" />
<glyph unicode="@" horiz-adv-x="1869" d="M158 590q0 194 66.5 362.5t181 287t273.5 186t339 67.5q326 0 518.5 -182.5t192.5 -509.5q0 -119 -34.5 -226t-90.5 -180t-128 -116t-147 -43q-180 0 -180 213q-50 -111 -128.5 -163.5t-174.5 -52.5q-132 0 -206.5 87t-74.5 239q0 213 127.5 363.5t300.5 150.5 q79 0 132 -32.5t73 -96.5l19 115h77l-61 -406q-12 -87 -16 -159q0 -103 30 -147t86 -44q123 0 224.5 147t101.5 355q0 294 -171.5 458t-463.5 164q-172 0 -321 -66.5t-252 -179.5t-161.5 -266t-58.5 -323q0 -331 197.5 -522t546.5 -191q380 0 618 213l43 -59 q-268 -226 -675 -226q-372 0 -587.5 211.5t-215.5 571.5zM647 561q0 -122 56 -190t155 -68q73 0 134 43t99 112.5t59 152t21 165.5q0 232 -186 232q-88 0 -166.5 -61.5t-125 -165t-46.5 -220.5z" />
<glyph unicode="A" horiz-adv-x="1204" d="M0 0l569 1446h80l555 -1446h-94l-168 455h-678l-168 -455h-96zM295 528h618q-189 496 -305 820q-59 -169 -313 -820z" />
<glyph unicode="B" horiz-adv-x="1257" d="M174 0v1446h512q113 0 178.5 -12.5t116.5 -44.5q66 -41 104.5 -117t38.5 -166q0 -249 -250 -328q147 -28 225.5 -125.5t78.5 -251.5q0 -122 -50.5 -213t-142.5 -135q-61 -31 -143.5 -42t-241.5 -11h-426zM258 78h412q158 0 248 33q80 31 126 106.5t46 179.5q0 87 -36 159 t-102 118q-92 63 -258 63h-436v-659zM258 813h406q153 0 233 39q66 34 102.5 98.5t36.5 149.5q0 114 -65 182q-46 50 -113 68t-205 18h-395v-555z" />
<glyph unicode="C" horiz-adv-x="1286" d="M104 735q0 344 166.5 539.5t448.5 195.5q211 0 333.5 -112t155.5 -293l-88 -29q-14 78 -40 138t-72 112t-120 79.5t-173 27.5q-244 0 -384.5 -171t-140.5 -472q0 -326 142 -510.5t385 -184.5q169 0 277 97.5t139 277.5l90 -29q-48 -202 -178.5 -314t-335.5 -112 q-281 0 -443 203.5t-162 556.5z" />
<glyph unicode="D" horiz-adv-x="1372" d="M174 0v1446h361q172 0 264.5 -14.5t167.5 -49.5q138 -66 219.5 -238.5t81.5 -400.5q0 -178 -47.5 -323.5t-135.5 -241.5q-91 -97 -220.5 -137.5t-348.5 -40.5h-342zM258 78h246q76 0 124.5 2t113 12t114.5 29q155 59 239.5 223.5t84.5 390.5q0 182 -54.5 329.5 t-171.5 227.5q-59 41 -156.5 58.5t-256.5 17.5h-283v-1290z" />
<glyph unicode="E" horiz-adv-x="1204" d="M174 0v1446h891v-78h-807v-584h731v-77h-731v-629h858v-78h-942z" />
<glyph unicode="F" horiz-adv-x="1138" d="M174 0v1446h893v-78h-809v-553h725v-80h-725v-735h-84z" />
<glyph unicode="G" horiz-adv-x="1392" d="M104 709q0 344 172 552.5t455 208.5q417 0 500 -403l-94 -31q-58 357 -394 357q-248 0 -399 -185.5t-151 -496.5q0 -298 142.5 -477t375.5 -179q148 0 255.5 78t153.5 217q20 59 26.5 120.5t6.5 182.5h-528v78h614v-731h-86v238q-65 -127 -180 -195t-268 -68 q-274 0 -437.5 200t-163.5 534z" />
<glyph unicode="H" horiz-adv-x="1396" d="M174 0v1446h84v-658h881v658h84v-1446h-84v711h-881v-711h-84z" />
<glyph unicode="I" horiz-adv-x="432" d="M174 0v1446h84v-1446h-84z" />
<glyph unicode="J" horiz-adv-x="794" d="M0 51l41 92q94 -88 227 -88q67 0 113 13t83 47t55 98.5t18 161.5v1071h84v-1067q0 -204 -79.5 -304t-273.5 -100q-145 0 -268 76z" />
<glyph unicode="K" horiz-adv-x="1261" d="M174 0v1446h84v-868l823 868h111l-541 -559l611 -887h-105l-563 829l-336 -354v-475h-84z" />
<glyph unicode="L" horiz-adv-x="1116" d="M174 0v1446h84v-1368h801v-78h-885z" />
<glyph unicode="M" horiz-adv-x="1609" d="M174 0v1446h123q285 -717 379.5 -961t132.5 -364q48 142 496 1325h129v-1446h-84q0 1055 6 1366q-101 -292 -518 -1366h-60q-409 1040 -526 1366q6 -166 6 -1366h-84z" />
<glyph unicode="N" horiz-adv-x="1413" d="M174 0v1446h96q199 -298 375 -559.5t254 -375.5t145.5 -216t116.5 -182q-6 279 -6 1333h84v-1446h-92q-199 297 -406 600t-301.5 445.5t-187.5 295.5q4 -308 4 -1341h-82z" />
<glyph unicode="O" horiz-adv-x="1404" d="M104 735q0 339 161 537t444 198q125 0 226 -41t168 -111t112 -167t65 -205t20 -229q0 -339 -158 -540.5t-425 -201.5q-152 0 -270.5 57t-192.5 160t-112 240t-38 303zM190 741q0 -317 141.5 -502.5t385.5 -185.5q227 0 361 178t134 488q0 320 -134.5 497t-372.5 177 q-237 0 -376 -177.5t-139 -474.5z" />
<glyph unicode="P" horiz-adv-x="1298" d="M174 0v1446h469q164 0 251 -11t142 -38q82 -40 129 -127.5t47 -200.5q0 -116 -51 -204t-145 -132q-69 -34 -159 -46.5t-259 -12.5h-340v-674h-84zM258 752h330q249 0 346 32q87 29 136.5 105.5t49.5 181.5q0 75 -26 136t-72 96q-56 43 -141 54t-252 11h-371v-616z" />
<glyph unicode="Q" horiz-adv-x="1404" d="M104 735q0 339 161 537t444 198q125 0 226 -41t168 -111t112 -167t65 -205t20 -229q0 -383 -198 -584l297 -242l-64 -61l-299 246q-141 -101 -319 -101q-152 0 -270.5 57t-192.5 160t-112 240t-38 303zM190 741q0 -317 141.5 -502.5t385.5 -185.5q227 0 361 178t134 488 q0 320 -134.5 497t-372.5 177q-237 0 -376 -177.5t-139 -474.5z" />
<glyph unicode="R" horiz-adv-x="1257" d="M174 0v1446h444q246 0 353 -51q81 -38 133.5 -126t52.5 -212q0 -174 -108.5 -275t-315.5 -118l471 -664h-110l-455 659h-381v-659h-84zM258 737h369q227 0 334.5 80t107.5 246q0 176 -131 254q-38 23 -96.5 35t-104.5 14t-121 2h-358v-631z" />
<glyph unicode="S" horiz-adv-x="1181" d="M72 385l84 41q53 -183 166 -277t282 -94q172 0 280.5 82t108.5 228q0 116 -77.5 187t-264.5 134l-121 41q-103 35 -170.5 68.5t-119.5 79t-75.5 104.5t-23.5 137q0 160 127 258.5t322 98.5q101 0 181 -25t137.5 -73.5t97.5 -108.5t71 -140l-84 -43q-45 153 -150.5 232.5 t-252.5 79.5q-164 0 -263.5 -75.5t-99.5 -201.5q0 -114 78.5 -183.5t261.5 -129.5l131 -43q217 -71 300 -160t83 -237q0 -178 -131 -284t-356 -106q-186 0 -322 104.5t-200 305.5z" />
<glyph unicode="T" horiz-adv-x="1112" d="M57 1368v78h998v-78h-459v-1368h-84v1368h-455z" />
<glyph unicode="U" horiz-adv-x="1374" d="M174 637v809h84v-899q0 -224 74 -336q51 -76 144.5 -117t211.5 -41q120 0 214 39t145 117q71 109 71 342v895h84v-811q0 -192 -16.5 -291t-65.5 -176q-60 -94 -172 -143.5t-264 -49.5q-150 0 -266 54.5t-170 150.5q-48 86 -61 180t-13 277z" />
<glyph unicode="V" horiz-adv-x="1126" d="M0 1446h90q429 -1223 473 -1352q45 150 134.5 405t338.5 947h90l-524 -1446h-86z" />
<glyph unicode="W" horiz-adv-x="1677" d="M0 1446h90q297 -1078 361 -1348q93 385 352 1348h78q34 -122 84 -299t74.5 -264t59 -210t52.5 -188.5t39.5 -145t35 -135.5t25.5 -106q61 313 336 1348h90l-385 -1446h-90q-61 221 -125 453t-95.5 345.5t-62.5 227.5t-47.5 178.5t-27.5 118.5q-83 -374 -352 -1323h-91z " />
<glyph unicode="X" horiz-adv-x="1171" d="M0 0l528 766l-465 680h105q99 -145 184 -270.5t146.5 -217t85.5 -127.5q198 297 415 615h103l-467 -672l536 -774h-106q-392 575 -487 709q-73 -111 -480 -709h-98z" />
<glyph unicode="Y" horiz-adv-x="1138" d="M0 1446h98q370 -607 465 -778q82 144 479 778h97l-537 -846v-600h-84v600z" />
<glyph unicode="Z" horiz-adv-x="1138" d="M57 0v59l918 1309h-864v78h970v-66l-909 -1302h897v-78h-1012z" />
<glyph unicode="[" horiz-adv-x="591" d="M182 -356v1902h310v-69h-224v-1768h224v-65h-310z" />
<glyph unicode="\" horiz-adv-x="841" d="M55 1546h80l680 -1902h-78z" />
<glyph unicode="]" horiz-adv-x="591" d="M100 -291h224v1768h-224v69h310v-1902h-310v65z" />
<glyph unicode="^" horiz-adv-x="1026" d="M135 760l342 686h80l334 -686h-82l-295 612l-297 -612h-82z" />
<glyph unicode="_" horiz-adv-x="1366" d="M0 -309h1366v-70h-1366v70z" />
<glyph unicode="`" horiz-adv-x="382" d="M66 1446h118l131 -295h-59z" />
<glyph unicode="a" horiz-adv-x="940" d="M72 254q0 106 61 172.5t199.5 106.5t382.5 63v92q0 132 -59.5 194t-182.5 62q-122 0 -195 -65t-85 -187l-82 13q45 309 364 309q174 0 254 -96q38 -45 51 -107t13 -176v-361q0 -49 1 -71.5t6 -54.5t15 -45.5t30 -24t50 -10.5q21 0 45 4v-72q-27 -6 -57 -6q-80 0 -121 39 t-45 125q-116 -172 -357 -172q-134 0 -211 74.5t-77 193.5zM154 258q0 -95 61 -149t164 -54q145 0 237 86q59 54 79 115.5t20 189.5v80q-213 -19 -333.5 -50.5t-174 -83t-53.5 -134.5z" />
<glyph unicode="b" horiz-adv-x="1040" d="M152 0v1446h79v-637q116 199 340 199q177 0 278 -136.5t101 -377.5q0 -247 -107.5 -378.5t-285.5 -131.5q-222 0 -326 192v-176h-79zM231 516q0 -216 86 -337.5t238 -121.5q148 0 230.5 116.5t82.5 328.5q0 202 -83 318t-224 116q-148 0 -239 -115t-91 -305z" />
<glyph unicode="c" horiz-adv-x="911" d="M90 502q0 236 118.5 373t319.5 137q136 0 222.5 -71.5t117.5 -205.5l-82 -28q-41 233 -256 233q-169 0 -263.5 -116t-94.5 -326q0 -203 96.5 -325t263.5 -122q116 0 183 62.5t88 171.5l80 -25q-29 -120 -121 -201.5t-242 -81.5q-201 0 -315.5 140t-114.5 385z" />
<glyph unicode="d" horiz-adv-x="1040" d="M90 508q0 230 111 365t297 135q220 0 311 -172v610h80v-1446h-80v180q-97 -196 -326 -196q-187 0 -290 137.5t-103 386.5zM172 512q0 -212 82.5 -333.5t228.5 -121.5q68 0 124 23.5t101.5 75t71 142t25.5 214.5q0 203 -77 313.5t-230 110.5q-151 0 -238.5 -114.5 t-87.5 -309.5z" />
<glyph unicode="e" horiz-adv-x="1026" d="M90 510q0 234 118.5 368t323.5 134q394 0 406 -510h-764q0 -120 30 -209.5t84 -141t120.5 -76t146.5 -24.5q246 0 303 234l76 -27q-35 -130 -132.5 -205.5t-248.5 -75.5q-224 0 -343.5 140t-119.5 393zM176 575h672q-8 164 -87.5 265.5t-234.5 101.5q-152 0 -243.5 -95 t-106.5 -272z" />
<glyph unicode="f" horiz-adv-x="540" d="M14 918v73h197v219q0 77 13.5 121t43.5 74q53 53 156 53q52 0 102 -16v-78q-51 22 -104 22q-66 0 -96 -34q-33 -39 -33 -140v-221h225v-73h-225v-918h-82v918h-197z" />
<glyph unicode="g" horiz-adv-x="1040" d="M90 496q0 241 109.5 375.5t304.5 134.5q224 0 305 -179v164h80v-1011q0 -161 -39 -246q-28 -64 -85.5 -106t-123.5 -58t-143 -16q-146 0 -243 70t-130 204l88 27q30 -115 100 -171.5t189 -56.5q102 0 168.5 30t101.5 103q37 78 37 250v170q-103 -196 -330 -196 q-181 0 -285 137t-104 375zM172 518q0 -212 84.5 -336.5t235.5 -124.5q144 0 228.5 113t84.5 330q0 207 -80 320.5t-227 113.5q-151 0 -238.5 -111t-87.5 -305z" />
<glyph unicode="h" horiz-adv-x="1028" d="M152 0v1446h79v-651q53 103 143 157t199 54q183 0 261 -121q51 -80 51 -244v-641h-80v618q0 161 -49 234q-56 78 -195 78q-68 0 -133 -29t-113 -92q-47 -63 -65.5 -131.5t-18.5 -157.5v-520h-79z" />
<glyph unicode="i" horiz-adv-x="382" d="M150 1294v152h83v-152h-83zM152 0v991h79v-991h-79z" />
<glyph unicode="j" horiz-adv-x="401" d="M-76 -358q47 -15 80 -15q121 0 152 84q16 45 16 191v1089h80v-1093q0 -160 -25 -222q-24 -61 -76.5 -91.5t-146.5 -30.5q-42 0 -80 12v76zM170 1294v152h84v-152h-84z" />
<glyph unicode="k" horiz-adv-x="915" d="M152 0v1446h79v-1026l525 571h102l-354 -387l411 -604h-100l-366 547l-218 -228v-319h-79z" />
<glyph unicode="l" horiz-adv-x="382" d="M152 0v1446h79v-1446h-79z" />
<glyph unicode="m" horiz-adv-x="1599" d="M152 0v991h79v-196q50 103 140 157t192 54q224 0 266 -209q52 106 140.5 157.5t195.5 51.5q182 0 248 -121q43 -76 43 -217v-668h-80v625q0 166 -53 235q-54 70 -168 70q-76 0 -142.5 -36t-107.5 -101q-36 -57 -48.5 -118t-12.5 -157v-518h-80v623q0 178 -55 247 q-51 60 -160 60q-59 0 -128.5 -33t-119.5 -109q-70 -110 -70 -266v-522h-79z" />
<glyph unicode="n" horiz-adv-x="1028" d="M152 0v991h79v-196q53 103 143 157t199 54q163 0 242 -97q36 -44 53 -107t17 -165v-637h-80v614q0 97 -12.5 153t-44.5 95q-57 68 -187 68q-66 0 -132.5 -30t-113.5 -91q-49 -66 -66.5 -135.5t-17.5 -153.5v-520h-79z" />
<glyph unicode="o" horiz-adv-x="1054" d="M90 504q0 235 123 371.5t328 136.5q197 0 310.5 -139.5t113.5 -383.5q0 -231 -120 -371.5t-315 -140.5q-207 0 -323.5 144t-116.5 383zM172 518q0 -215 97 -341t257 -126q163 0 260 115.5t97 320.5q0 212 -94 332.5t-252 120.5q-164 0 -264.5 -113.5t-100.5 -308.5z" />
<glyph unicode="p" horiz-adv-x="1040" d="M152 -430v1421h79v-200q49 109 138 162t202 53q177 0 278 -138.5t101 -380.5q0 -241 -103 -372t-292 -131q-237 0 -328 217v-631h-75zM231 514q0 -217 86 -340t238 -123q148 0 229.5 116.5t81.5 328.5q0 204 -82.5 324t-222.5 120q-148 0 -239 -117.5t-91 -308.5z" />
<glyph unicode="q" horiz-adv-x="1040" d="M90 498q0 247 107.5 378.5t285.5 131.5q221 0 326 -193v176h80v-1421h-80v612q-115 -198 -340 -198q-177 0 -278 136.5t-101 377.5zM172 489q0 -202 83 -318t224 -116q148 0 239 115t91 305q0 216 -86 337.5t-238 121.5q-148 0 -230.5 -116.5t-82.5 -328.5z" />
<glyph unicode="r" horiz-adv-x="628" d="M152 0v991h79v-174q96 187 281 187q50 0 102 -15v-96q-47 27 -106 27q-98 0 -166 -68q-66 -66 -88.5 -144t-22.5 -210v-498h-79z" />
<glyph unicode="s" horiz-adv-x="849" d="M55 260l76 31q31 -109 108.5 -174.5t200.5 -65.5q118 0 190 53.5t72 149.5q0 80 -51.5 124t-183.5 85l-113 35q-130 41 -191 106t-61 158q0 112 92 181t238 69q127 0 211 -64t121 -184l-76 -31q-58 207 -266 207q-108 0 -173 -47.5t-65 -128.5q0 -70 46 -115t157 -76 l100 -28q161 -46 229 -111t68 -176q0 -129 -95 -205t-257 -76q-143 0 -239 75t-138 208z" />
<glyph unicode="t" horiz-adv-x="536" d="M14 918v73h195v369h80v-369h217v-73h-217v-709q0 -86 29.5 -118t91.5 -32q47 0 98 21v-78q-62 -16 -107 -16q-105 0 -148.5 51t-43.5 182v699h-195z" />
<glyph unicode="u" horiz-adv-x="1036" d="M152 356v635h79v-612q0 -144 39 -215q57 -103 211 -103q153 0 238 111q86 113 86 326v493h80v-991h-80v197q-55 -113 -140.5 -162t-203.5 -49q-190 0 -264 133q-45 83 -45 237z" />
<glyph unicode="v" horiz-adv-x="833" d="M0 991h88q280 -739 334 -889q61 177 323 889h89l-375 -991h-80z" />
<glyph unicode="w" horiz-adv-x="1296" d="M0 991h88q77 -242 139 -437t89.5 -280t45.5 -143q78 278 256 860h76q182 -549 269 -860q49 191 245 860h88l-303 -991h-71q-177 571 -267 879q-42 -175 -258 -879h-73z" />
<glyph unicode="x" horiz-adv-x="839" d="M18 0l351 516l-322 475h94q52 -78 119.5 -178.5t102.5 -153t57 -88.5q1 1 97 144.5t183 275.5h97l-330 -475l354 -516h-98q-75 113 -145 218t-102.5 154t-59.5 91q-25 -38 -110.5 -168t-194.5 -295h-93z" />
<glyph unicode="y" horiz-adv-x="854" d="M20 991h89q244 -643 335 -915q88 257 322 915h88l-448 -1218q-49 -132 -101.5 -175.5t-140.5 -43.5q-50 0 -94 18v78q51 -23 96 -23q56 0 89 28t69 124l77 209z" />
<glyph unicode="z" horiz-adv-x="813" d="M55 0v53l584 865h-553v73h655v-51l-583 -866h596v-74h-699z" />
<glyph unicode="{" horiz-adv-x="684" d="M133 571v43q54 27 73.5 46t37.5 59q18 43 18 246v180q0 151 20 225.5t74 120.5q61 54 172 70v-58q-56 -17 -94 -43q-54 -41 -72 -106.5t-18 -216.5v-160q0 -116 -4 -166.5t-16 -95.5q-22 -80 -111 -119q49 -27 72.5 -52.5t38.5 -68.5q20 -65 20 -262v-160q0 -102 7 -157 t26 -95q39 -85 151 -114v-58q-116 14 -174 68q-54 51 -73 124t-19 224v180q0 121 -3 164t-13 78q-11 38 -37 62.5t-76 41.5z" />
<glyph unicode="|" horiz-adv-x="450" d="M182 -358v1904h82v-1904h-82z" />
<glyph unicode="}" horiz-adv-x="684" d="M154 -313q56 17 94 43q54 41 72 106.5t18 216.5v160q0 116 4 166.5t16 95.5q22 80 111 119q-49 27 -72.5 52.5t-38.5 68.5q-20 65 -20 262v160q0 102 -7 157t-26 95q-39 85 -151 114v58q116 -14 174 -68q54 -51 73 -124t19 -224v-180q0 -121 3 -164t13 -78 q21 -74 113 -105v-43q-54 -27 -73.5 -46t-37.5 -58q-18 -43 -18 -246v-180q0 -151 -20 -225.5t-74 -120.5q-61 -54 -172 -70v58z" />
<glyph unicode="~" horiz-adv-x="1415" d="M162 518q122 209 305 209q57 0 106.5 -18.5t155.5 -81.5q78 -46 128 -66t93 -20q66 0 126 42t122 140l55 -43q-131 -209 -311 -209q-96 0 -248 90q-77 46 -104 61.5t-62 27.5t-69 12q-71 0 -127 -41.5t-113 -143.5z" />
<glyph unicode="&#xa1;" horiz-adv-x="460" d="M133 0q0 56 8 488t13 585h57q6 -165 14 -584.5t8 -488.5h-100zM133 1243v203h98v-203h-98z" />
<glyph unicode="&#xa2;" horiz-adv-x="1024" d="M147 502q0 210 100 338t273 147v178h66v-176q251 -6 321 -248l-80 -28q-45 206 -241 209v-852q207 3 260 209l78 -23q-14 -49 -40.5 -92t-66.5 -80.5t-99.5 -60.5t-131.5 -25v-201h-66v203q-177 17 -275 149.5t-98 352.5zM227 498q0 -176 76.5 -290t216.5 -134v846 q-140 -20 -216.5 -130t-76.5 -292z" />
<glyph unicode="&#xa3;" horiz-adv-x="1189" d="M57 123q0 70 46.5 113t123.5 43q103 0 232 -76q22 48 22 114q0 12 -1 24.5t-1.5 23t-3.5 26.5t-4.5 25t-6.5 29.5t-7 30t-9 35.5t-10 37t-11.5 44t-12.5 47h-248v66h229q-78 266 -78 391q0 156 103 247t278 91q132 0 215 -62t134 -190l-74 -45q-35 116 -102 168.5 t-181 52.5q-137 0 -212 -71t-75 -200q0 -41 9 -95.5t18.5 -94.5t32.5 -129l16 -63h416v-66h-397q5 -20 19 -72.5t17.5 -69t11 -51.5t9.5 -60t2 -54q0 -88 -39 -162l90 -49q128 -68 219 -68q88 0 137 59t62 183l78 -27q-44 -291 -270 -291q-126 0 -277 84l-74 41 q-86 -125 -245 -125q-80 0 -130.5 41t-50.5 105zM131 127q0 -39 31.5 -63.5t85.5 -24.5q108 0 178 98q-68 43 -113.5 58.5t-91.5 15.5q-41 0 -65.5 -23.5t-24.5 -60.5z" />
<glyph unicode="&#xa4;" horiz-adv-x="1366" d="M141 209l148 147q-131 148 -131 340q0 100 31 181.5t100 160.5l-148 148l54 53l147 -147q147 129 344 129q193 0 342 -127l148 145l51 -51l-146 -148q69 -79 100 -161.5t31 -182.5q0 -191 -129 -340l148 -147l-53 -51l-148 145q-147 -129 -344 -129q-195 0 -344 127 l-147 -145zM231 702q0 -198 129.5 -329t325.5 -131q193 0 323 130t130 324q0 195 -129.5 325t-323.5 130q-192 0 -323.5 -129.5t-131.5 -319.5z" />
<glyph unicode="&#xa5;" horiz-adv-x="1239" d="M63 1411h99l276 -455q37 -60 176 -301q11 18 74.5 126t102.5 171l288 459h97l-394 -623h287v-65h-330l-86 -137v-45h416v-66h-416v-475h-84v475h-415v66h415v45l-82 137h-333v65h290z" />
<glyph unicode="&#xa6;" horiz-adv-x="450" d="M182 -356v798h82v-798h-82zM182 745v801h82v-801h-82z" />
<glyph unicode="&#xa7;" horiz-adv-x="1089" d="M123 707q0 111 65 189t207 124q-168 85 -168 242q0 120 91 192t245 72q206 0 330 -178l-68 -60q-83 162 -268 162q-110 0 -178 -47t-68 -131q0 -80 52 -127.5t215 -116.5l153 -65q142 -60 197 -128.5t55 -164.5q0 -201 -250 -342q114 -57 158.5 -116t44.5 -151 q0 -134 -107.5 -217.5t-279.5 -83.5q-267 0 -389 236l71 57q45 -107 128.5 -162t195.5 -55q130 0 212.5 60.5t82.5 158.5q0 19 -2 35.5t-8.5 32t-11.5 27t-20 25.5t-23 22.5t-32 22.5t-36.5 21.5t-46 23.5t-51 24t-60.5 28l-197 91q-239 109 -239 299zM207 715 q0 -79 50 -138t157 -106l256 -113q114 66 170.5 136t56.5 153q0 81 -50 140t-159 106l-221 96q-122 -33 -191 -104.5t-69 -169.5z" />
<glyph unicode="&#xa8;" horiz-adv-x="382" d="M-49 1223v151h84v-151h-84zM350 1223v151h84v-151h-84z" />
<glyph unicode="&#xa9;" horiz-adv-x="1689" d="M86 727q0 154 60 292.5t162 238.5t243.5 158.5t298.5 58.5q155 0 294.5 -58t240.5 -157t160 -236t59 -289q0 -159 -57.5 -301t-156 -243.5t-236 -160.5t-292.5 -59q-214 0 -392 100t-281 273.5t-103 382.5zM164 723q0 -187 92 -344.5t251.5 -249.5t348.5 -92 q184 0 339 91t244 247t89 342q0 145 -51.5 273.5t-140.5 220.5t-215 145t-269 53t-271 -53.5t-219.5 -145t-144.5 -218.5t-53 -269zM406 723q0 211 129.5 346t330.5 135q225 0 334 -180l-61 -45q-96 156 -279 156q-168 0 -270.5 -114t-102.5 -304t102.5 -304t270.5 -114 q193 0 297 162l60 -47q-58 -85 -153.5 -134t-207.5 -49q-204 0 -327 134.5t-123 357.5z" />
<glyph unicode="&#xaa;" horiz-adv-x="804" d="M68 846q0 85 47.5 138t161 86.5t313.5 51.5v74q0 103 -46 152t-145 49q-202 0 -223 -193l-76 10q37 248 301 248q141 0 201 -68.5t60 -238.5v-264q0 -106 16 -145t70 -39q16 0 36 4v-68q-28 -4 -49 -4q-135 0 -143 127q-100 -133 -287 -133q-108 0 -172.5 59.5 t-64.5 153.5zM147 850q0 -70 48 -112t127 -42q118 0 192 68q42 37 59 84t17 145v66q-252 -31 -347.5 -72.5t-95.5 -136.5z" />
<glyph unicode="&#xab;" horiz-adv-x="866" d="M94 543l279 379l57 -45l-233 -334l233 -330l-57 -47zM430 543l277 379l57 -45l-234 -334l234 -330l-57 -47z" />
<glyph unicode="&#xac;" horiz-adv-x="1482" d="M199 592v72h1085v-578h-70v506h-1015z" />
<glyph unicode="&#xad;" horiz-adv-x="729" d="M100 549v78h527v-78h-527z" />
<glyph unicode="&#xae;" horiz-adv-x="1689" d="M86 727q0 154 60 292.5t162 238.5t243.5 158.5t298.5 58.5q155 0 294.5 -58t240.5 -157t160 -236t59 -289q0 -159 -57.5 -301t-156 -243.5t-236 -160.5t-292.5 -59q-214 0 -392 100t-281 273.5t-103 382.5zM164 723q0 -187 92 -344.5t251.5 -249.5t348.5 -92 q184 0 339 91t244 247t89 342q0 145 -51.5 273.5t-140.5 220.5t-215 145t-269 53t-271 -53.5t-219.5 -145t-144.5 -218.5t-53 -269zM565 281v917h338q145 0 219 -66.5t74 -187.5q0 -108 -67 -172t-193 -78l297 -413h-92l-287 409h-217v-409h-72zM637 756h223q131 0 197.5 46 t66.5 144q0 108 -66.5 147.5t-203.5 39.5h-217v-377z" />
<glyph unicode="&#xaf;" horiz-adv-x="382" d="M-27 1225v67h439v-67h-439z" />
<glyph unicode="&#xb0;" horiz-adv-x="684" d="M55 1186q0 119 81 201.5t202 82.5q125 0 207 -79t82 -203q0 -125 -82.5 -207t-202.5 -82q-123 0 -205 82t-82 205zM127 1186q0 -97 60 -158t155 -61q96 0 155.5 62t59.5 157q0 96 -59 157.5t-152 61.5q-98 0 -158.5 -61.5t-60.5 -157.5z" />
<glyph unicode="&#xb1;" horiz-adv-x="1482" d="M199 0v68h1085v-68h-1085zM199 793v65h508v500h69v-500h508v-65h-508v-500h-69v500h-508z" />
<glyph unicode="&#xb2;" d="M113 1540q0 116 80 185t213 69q137 0 214.5 -73t77.5 -201q0 -107 -58 -198.5t-214 -209.5q-96 -73 -209 -147q39 2 477 2v-66h-579v66l194 137q183 129 248.5 216.5t65.5 203.5q0 99 -60 153t-164 54q-99 0 -157 -50.5t-58 -140.5q0 -57 23 -125l-76 12q-18 44 -18 113z " />
<glyph unicode="&#xb3;" d="M111 1116l67 31q33 -197 225 -197q101 0 161.5 51.5t60.5 139.5q0 97 -69 140.5t-220 43.5q-32 0 -57 -2v61h40q134 0 206.5 48t72.5 137q0 76 -51.5 119t-138.5 43q-177 0 -211 -181l-68 23q26 107 98.5 164t184.5 57q120 0 189 -61t69 -166q0 -86 -55 -139.5 t-154 -67.5q108 -3 173.5 -60t65.5 -161q0 -110 -83.5 -181t-215.5 -71q-235 0 -290 229z" />
<glyph unicode="&#xb4;" horiz-adv-x="382" d="M53 1151l156 295h119l-215 -295h-60z" />
<glyph unicode="&#xb5;" horiz-adv-x="1032" d="M152 -360v1351h79v-502q0 -225 39 -307q26 -54 86.5 -87.5t132.5 -33.5q100 0 177.5 58.5t109.5 159.5q15 47 20 98.5t5 181.5v432h80v-991h-76v182q-104 -200 -328 -200q-180 0 -250 145v-487h-75z" />
<glyph unicode="&#xb6;" horiz-adv-x="1165" d="M92 1067q0 170 112.5 274.5t313.5 104.5h537v-70h-140v-1665h-71v1665h-344v-1665h-72v991q-161 19 -248.5 113.5t-87.5 251.5z" />
<glyph unicode="&#xb7;" horiz-adv-x="358" d="M131 492v202h98v-202h-98z" />
<glyph unicode="&#xb8;" horiz-adv-x="382" d="M33 -383l37 51q44 -47 98 -47q49 0 80 29.5t31 75.5q0 43 -28.5 70.5t-72.5 27.5q-48 0 -90 -31l-20 33l79 197h64l-61 -154q33 8 55 8q66 0 105.5 -40.5t39.5 -108.5q0 -71 -51.5 -117.5t-132.5 -46.5q-80 0 -133 53z" />
<glyph unicode="&#xb9;" d="M213 1593v64q166 12 182 135h62v-891h-72v746q-57 -49 -172 -54z" />
<glyph unicode="&#xba;" horiz-adv-x="862" d="M72 1044q0 193 98.5 305.5t267.5 112.5q161 0 257 -114.5t96 -307.5q0 -186 -97.5 -297.5t-259.5 -111.5q-172 0 -267 108.5t-95 304.5zM152 1057q0 -169 75.5 -265t206.5 -96q124 0 201.5 93.5t77.5 248.5q0 163 -75.5 261t-199.5 98q-130 0 -208 -91.5t-78 -248.5z" />
<glyph unicode="&#xbb;" horiz-adv-x="866" d="M100 213l234 330l-234 334l58 45l278 -379l-278 -377zM436 213l234 330l-234 334l58 45l276 -379l-276 -377z" />
<glyph unicode="&#xbc;" horiz-adv-x="1773" d="M197 1225v63q166 12 182 135h61v-891h-71v746q-56 -47 -172 -53zM549 0l528 1411h80l-530 -1411h-78zM942 213v55l416 611h84v-600h170v-66h-170v-213h-70v213h-430zM1030 279h342q0 280 2 522q-38 -60 -344 -522z" />
<glyph unicode="&#xbd;" horiz-adv-x="1773" d="M156 1225v63q166 12 182 135h61v-891h-71v746q-56 -47 -172 -53zM510 0l528 1411h80l-530 -1411h-78zM1036 639q0 116 80 185t213 69q137 0 215 -73.5t78 -201.5q0 -107 -58 -198t-214 -209q-105 -80 -209 -148q59 3 477 3v-66h-580v66l195 137q183 129 248 216.5 t65 203.5q0 99 -59.5 152.5t-163.5 53.5q-99 0 -157 -50t-58 -140q0 -60 22 -125l-75 12q-19 46 -19 113z" />
<glyph unicode="&#xbe;" horiz-adv-x="1773" d="M111 748l67 30q33 -196 225 -196q101 0 161.5 51t60.5 139q0 97 -69 140.5t-220 43.5q-32 0 -57 -2v62h40q134 0 206.5 47.5t72.5 136.5q0 76 -51.5 119t-138.5 43q-177 0 -211 -180l-68 22q26 107 98.5 164t184.5 57q120 0 189 -61t69 -166q0 -86 -55 -139.5t-154 -67.5 q108 -3 173.5 -60t65.5 -161q0 -110 -83.5 -181t-215.5 -71q-234 0 -290 230zM588 0l528 1411h80l-530 -1411h-78zM981 213v55l416 611h84v-600h170v-66h-170v-213h-70v213h-430zM1069 279h342q0 280 2 522q-38 -60 -344 -522z" />
<glyph unicode="&#xbf;" horiz-adv-x="1042" d="M106 330q0 100 51 195t162 206l74 74q61 61 83 107t22 118v49h80v-47q0 -85 -26 -140.5t-110 -139.5l-65 -66q-98 -98 -144.5 -181t-46.5 -167q0 -131 80.5 -208t212.5 -77q145 0 229.5 90t84.5 248q0 26 -7 80l82 -16q6 -38 6 -68q0 -184 -108.5 -297t-290.5 -113 q-167 0 -268 96.5t-101 256.5zM487 1243v203h99v-203h-99z" />
<glyph unicode="&#xc0;" horiz-adv-x="1204" d="M0 0l569 1446h80l555 -1446h-94l-168 455h-678l-168 -455h-96zM295 528h618q-189 496 -305 820q-59 -169 -313 -820zM410 1806h133l127 -237h-60z" />
<glyph unicode="&#xc1;" horiz-adv-x="1204" d="M0 0l569 1446h80l555 -1446h-94l-168 455h-678l-168 -455h-96zM295 528h618q-189 496 -305 820q-59 -169 -313 -820zM553 1569l149 237h136l-224 -237h-61z" />
<glyph unicode="&#xc2;" horiz-adv-x="1204" d="M0 0l569 1446h80l555 -1446h-94l-168 455h-678l-168 -455h-96zM295 528h618q-189 496 -305 820q-59 -169 -313 -820zM391 1583l176 223h86l185 -223h-82l-146 156l-141 -156h-78z" />
<glyph unicode="&#xc3;" horiz-adv-x="1204" d="M0 0l569 1446h80l555 -1446h-94l-168 455h-678l-168 -455h-96zM295 528h618q-189 496 -305 820q-59 -169 -313 -820zM338 1622q62 141 176 141q50 0 102 -30l48 -29q53 -29 77 -29q35 0 61 20.5t54 69.5l53 -30q-38 -70 -79.5 -101.5t-92.5 -31.5q-53 0 -108 34l-56 35 q-30 21 -65 21q-38 0 -65 -22t-50 -75z" />
<glyph unicode="&#xc4;" horiz-adv-x="1204" d="M0 0l569 1446h80l555 -1446h-94l-168 455h-678l-168 -455h-96zM295 528h618q-189 496 -305 820q-59 -169 -313 -820zM326 1583v150h88v-150h-88zM799 1583v150h86v-150h-86z" />
<glyph unicode="&#xc5;" horiz-adv-x="1204" d="M0 0l569 1446h80l555 -1446h-94l-168 455h-678l-168 -455h-96zM295 528h618q-189 496 -305 820q-59 -169 -313 -820zM444 1669q0 68 46 112t116 44q72 0 117 -44.5t45 -113.5t-45.5 -113.5t-114.5 -44.5q-72 0 -118 45t-46 115zM510 1667q0 -43 27.5 -70.5t68.5 -27.5 t68.5 27.5t27.5 70.5q0 41 -27 69.5t-67 28.5q-44 0 -71 -27.5t-27 -70.5z" />
<glyph unicode="&#xc6;" horiz-adv-x="1970" d="M0 0l895 1446h936v-78h-809v-584h733v-77h-733v-629h860v-78h-944v430h-578l-260 -430h-100zM410 510h528v868q-49 -84 -96.5 -163t-110.5 -181.5t-92 -150.5z" />
<glyph unicode="&#xc7;" horiz-adv-x="1286" d="M104 735q0 344 166.5 539.5t448.5 195.5q211 0 333.5 -112t155.5 -293l-88 -29q-14 78 -40 138t-72 112t-120 79.5t-173 27.5q-244 0 -384.5 -171t-140.5 -472q0 -326 142 -510.5t385 -184.5q169 0 277 97.5t139 277.5l90 -29q-47 -195 -171.5 -307t-318.5 -119l-41 -106 q33 8 56 8q66 0 105.5 -40.5t39.5 -108.5q0 -71 -51.5 -117.5t-132.5 -46.5t-134 53l37 51q44 -47 99 -47q49 0 79.5 29.5t30.5 75.5q0 43 -28 70.5t-72 27.5q-48 0 -90 -31l-21 33l62 151q-266 14 -417 215t-151 543z" />
<glyph unicode="&#xc8;" horiz-adv-x="1204" d="M174 0v1446h891v-78h-807v-584h731v-77h-731v-629h858v-78h-942zM428 1806h133l127 -237h-59z" />
<glyph unicode="&#xc9;" horiz-adv-x="1204" d="M174 0v1446h891v-78h-807v-584h731v-77h-731v-629h858v-78h-942zM553 1569l149 237h136l-224 -237h-61z" />
<glyph unicode="&#xca;" horiz-adv-x="1204" d="M174 0v1446h891v-78h-807v-584h731v-77h-731v-629h858v-78h-942zM395 1583l176 223h86l185 -223h-82l-146 156l-141 -156h-78z" />
<glyph unicode="&#xcb;" horiz-adv-x="1204" d="M174 0v1446h891v-78h-807v-584h731v-77h-731v-629h858v-78h-942zM340 1583v150h88v-150h-88zM813 1583v150h86v-150h-86z" />
<glyph unicode="&#xcc;" horiz-adv-x="432" d="M14 1806h133l127 -237h-59zM174 0v1446h84v-1446h-84z" />
<glyph unicode="&#xcd;" horiz-adv-x="432" d="M150 1569l149 237h135l-223 -237h-61zM174 0v1446h84v-1446h-84z" />
<glyph unicode="&#xce;" horiz-adv-x="432" d="M-8 1583l176 223h86l184 -223h-82l-145 156l-141 -156h-78zM174 0v1446h84v-1446h-84z" />
<glyph unicode="&#xcf;" horiz-adv-x="432" d="M-2 1583v150h88v-150h-88zM174 0v1446h84v-1446h-84zM346 1583v150h86v-150h-86z" />
<glyph unicode="&#xd0;" horiz-adv-x="1372" d="M14 729v78h160v639h361q172 0 264.5 -14.5t167.5 -49.5q138 -66 219.5 -238.5t81.5 -400.5q0 -178 -47.5 -323.5t-135.5 -241.5q-91 -97 -220.5 -137.5t-348.5 -40.5h-342v729h-160zM258 78h246q76 0 124.5 2t113 12t114.5 29q155 59 239.5 223.5t84.5 390.5 q0 182 -54.5 329.5t-171.5 227.5q-59 41 -156.5 58.5t-256.5 17.5h-283v-561h553v-78h-553v-651z" />
<glyph unicode="&#xd1;" horiz-adv-x="1413" d="M174 0v1446h96q199 -298 375 -559.5t254 -375.5t145.5 -216t116.5 -182q-6 279 -6 1333h84v-1446h-92q-199 297 -406 600t-301.5 445.5t-187.5 295.5q4 -308 4 -1341h-82zM444 1622q62 141 177 141q50 0 102 -30l47 -29q53 -29 78 -29q35 0 61 20.5t54 69.5l53 -30 q-38 -70 -79.5 -101.5t-92.5 -31.5q-54 0 -109 34l-55 35q-30 21 -66 21q-38 0 -64.5 -22t-49.5 -75z" />
<glyph unicode="&#xd2;" horiz-adv-x="1404" d="M104 735q0 339 161 537t444 198q125 0 226 -41t168 -111t112 -167t65 -205t20 -229q0 -339 -158 -540.5t-425 -201.5q-152 0 -270.5 57t-192.5 160t-112 240t-38 303zM190 741q0 -317 141.5 -502.5t385.5 -185.5q227 0 361 178t134 488q0 320 -134.5 497t-372.5 177 q-237 0 -376 -177.5t-139 -474.5zM510 1806h133l127 -237h-59z" />
<glyph unicode="&#xd3;" horiz-adv-x="1404" d="M104 735q0 339 161 537t444 198q125 0 226 -41t168 -111t112 -167t65 -205t20 -229q0 -339 -158 -540.5t-425 -201.5q-152 0 -270.5 57t-192.5 160t-112 240t-38 303zM190 741q0 -317 141.5 -502.5t385.5 -185.5q227 0 361 178t134 488q0 320 -134.5 497t-372.5 177 q-237 0 -376 -177.5t-139 -474.5zM641 1569l150 237h135l-224 -237h-61z" />
<glyph unicode="&#xd4;" horiz-adv-x="1404" d="M104 735q0 339 161 537t444 198q125 0 226 -41t168 -111t112 -167t65 -205t20 -229q0 -339 -158 -540.5t-425 -201.5q-152 0 -270.5 57t-192.5 160t-112 240t-38 303zM190 741q0 -317 141.5 -502.5t385.5 -185.5q227 0 361 178t134 488q0 320 -134.5 497t-372.5 177 q-237 0 -376 -177.5t-139 -474.5zM487 1583l177 223h86l184 -223h-82l-145 156l-142 -156h-78z" />
<glyph unicode="&#xd5;" horiz-adv-x="1404" d="M104 735q0 339 161 537t444 198q125 0 226 -41t168 -111t112 -167t65 -205t20 -229q0 -339 -158 -540.5t-425 -201.5q-152 0 -270.5 57t-192.5 160t-112 240t-38 303zM190 741q0 -317 141.5 -502.5t385.5 -185.5q227 0 361 178t134 488q0 320 -134.5 497t-372.5 177 q-237 0 -376 -177.5t-139 -474.5zM420 1622q62 141 176 141q50 0 102 -30l47 -29q53 -29 78 -29q35 0 61 20.5t54 69.5l53 -30q-38 -70 -79.5 -101.5t-92.5 -31.5q-53 0 -108 34l-56 35q-30 21 -65 21q-38 0 -65 -22t-50 -75z" />
<glyph unicode="&#xd6;" horiz-adv-x="1404" d="M104 735q0 339 161 537t444 198q125 0 226 -41t168 -111t112 -167t65 -205t20 -229q0 -339 -158 -540.5t-425 -201.5q-152 0 -270.5 57t-192.5 160t-112 240t-38 303zM190 741q0 -317 141.5 -502.5t385.5 -185.5q227 0 361 178t134 488q0 320 -134.5 497t-372.5 177 q-237 0 -376 -177.5t-139 -474.5zM420 1583v150h88v-150h-88zM893 1583v150h86v-150h-86z" />
<glyph unicode="&#xd7;" horiz-adv-x="1482" d="M330 983l49 49l362 -358l361 360l49 -49l-360 -360l362 -363l-49 -49l-363 360l-358 -360l-51 49l360 361z" />
<glyph unicode="&#xd8;" horiz-adv-x="1404" d="M104 735q0 339 161 537t444 198q253 0 403 -163l131 170l60 -43l-144 -187q141 -200 141 -530q0 -339 -158 -540.5t-425 -201.5q-256 0 -414 158l-127 -166l-55 47l135 176q-152 201 -152 545zM190 741q0 -294 123 -477l746 973q-132 156 -354 156q-237 0 -376 -177.5 t-139 -474.5zM358 205q140 -152 359 -152q227 0 361 178t134 488q0 283 -108 457z" />
<glyph unicode="&#xd9;" horiz-adv-x="1374" d="M174 637v809h84v-899q0 -224 74 -336q51 -76 144.5 -117t211.5 -41q120 0 214 39t145 117q71 109 71 342v895h84v-811q0 -192 -16.5 -291t-65.5 -176q-60 -94 -172 -143.5t-264 -49.5q-150 0 -266 54.5t-170 150.5q-48 86 -61 180t-13 277zM496 1806h133l127 -237h-60z " />
<glyph unicode="&#xda;" horiz-adv-x="1374" d="M174 637v809h84v-899q0 -224 74 -336q51 -76 144.5 -117t211.5 -41q120 0 214 39t145 117q71 109 71 342v895h84v-811q0 -192 -16.5 -291t-65.5 -176q-60 -94 -172 -143.5t-264 -49.5q-150 0 -266 54.5t-170 150.5q-48 86 -61 180t-13 277zM631 1569l149 237h135 l-223 -237h-61z" />
<glyph unicode="&#xdb;" horiz-adv-x="1374" d="M174 637v809h84v-899q0 -224 74 -336q51 -76 144.5 -117t211.5 -41q120 0 214 39t145 117q71 109 71 342v895h84v-811q0 -192 -16.5 -291t-65.5 -176q-60 -94 -172 -143.5t-264 -49.5q-150 0 -266 54.5t-170 150.5q-48 86 -61 180t-13 277zM463 1583l176 223h86l184 -223 h-82l-145 156l-141 -156h-78z" />
<glyph unicode="&#xdc;" horiz-adv-x="1374" d="M174 637v809h84v-899q0 -224 74 -336q51 -76 144.5 -117t211.5 -41q120 0 214 39t145 117q71 109 71 342v895h84v-811q0 -192 -16.5 -291t-65.5 -176q-60 -94 -172 -143.5t-264 -49.5q-150 0 -266 54.5t-170 150.5q-48 86 -61 180t-13 277zM414 1583v150h88v-150h-88z M887 1583v150h86v-150h-86z" />
<glyph unicode="&#xdd;" horiz-adv-x="1138" d="M0 1446h98q370 -607 465 -778q82 144 479 778h97l-537 -846v-600h-84v600zM512 1569l150 237h135l-224 -237h-61z" />
<glyph unicode="&#xde;" horiz-adv-x="1298" d="M174 0v1446h84v-287h442q235 0 336 -49q82 -40 129 -127.5t47 -200.5q0 -115 -51 -202.5t-145 -133.5q-69 -34 -159 -46.5t-259 -12.5h-340v-387h-84zM258 467h410q172 0 266 33q52 17 90 50.5t58 74t29 80.5t9 81q0 73 -26 135t-72 97q-55 42 -132.5 52.5t-260.5 10.5 h-371v-614z" />
<glyph unicode="&#xdf;" horiz-adv-x="1005" d="M152 0v1083q0 187 86 286t260 99q155 0 244 -86t89 -237q0 -134 -78 -226.5t-233 -113.5q395 -25 395 -416q0 -188 -101.5 -294.5t-281.5 -106.5q-78 0 -174 24v88q77 -39 162 -39q148 0 227.5 88.5t79.5 249.5q0 178 -106 268.5t-309 90.5h-43v80h34q89 0 165 32.5 t126.5 103t50.5 167.5q0 119 -67 187.5t-182 68.5q-144 0 -204.5 -83t-60.5 -247v-1067h-79z" />
<glyph unicode="&#xe0;" horiz-adv-x="940" d="M72 254q0 106 61 172.5t199.5 106.5t382.5 63v92q0 132 -59.5 194t-182.5 62q-122 0 -195 -65t-85 -187l-82 13q45 309 364 309q174 0 254 -96q38 -45 51 -107t13 -176v-361q0 -49 1 -71.5t6 -54.5t15 -45.5t30 -24t50 -10.5q21 0 45 4v-72q-27 -6 -57 -6q-80 0 -121 39 t-45 125q-116 -172 -357 -172q-134 0 -211 74.5t-77 193.5zM154 258q0 -95 61 -149t164 -54q145 0 237 86q59 54 79 115.5t20 189.5v80q-213 -19 -333.5 -50.5t-174 -83t-53.5 -134.5zM287 1446h119l131 -295h-60z" />
<glyph unicode="&#xe1;" horiz-adv-x="940" d="M72 254q0 106 61 172.5t199.5 106.5t382.5 63v92q0 132 -59.5 194t-182.5 62q-122 0 -195 -65t-85 -187l-82 13q45 309 364 309q174 0 254 -96q38 -45 51 -107t13 -176v-361q0 -49 1 -71.5t6 -54.5t15 -45.5t30 -24t50 -10.5q21 0 45 4v-72q-27 -6 -57 -6q-80 0 -121 39 t-45 125q-116 -172 -357 -172q-134 0 -211 74.5t-77 193.5zM154 258q0 -95 61 -149t164 -54q145 0 237 86q59 54 79 115.5t20 189.5v80q-213 -19 -333.5 -50.5t-174 -83t-53.5 -134.5zM391 1151l156 295h119l-215 -295h-60z" />
<glyph unicode="&#xe2;" horiz-adv-x="940" d="M72 254q0 106 61 172.5t199.5 106.5t382.5 63v92q0 132 -59.5 194t-182.5 62q-122 0 -195 -65t-85 -187l-82 13q45 309 364 309q174 0 254 -96q38 -45 51 -107t13 -176v-361q0 -49 1 -71.5t6 -54.5t15 -45.5t30 -24t50 -10.5q21 0 45 4v-72q-27 -6 -57 -6q-80 0 -121 39 t-45 125q-116 -172 -357 -172q-134 0 -211 74.5t-77 193.5zM154 258q0 -95 61 -149t164 -54q145 0 237 86q59 54 79 115.5t20 189.5v80q-213 -19 -333.5 -50.5t-174 -83t-53.5 -134.5zM231 1151l209 295h70l199 -295h-74l-160 223l-170 -223h-74z" />
<glyph unicode="&#xe3;" horiz-adv-x="940" d="M72 254q0 106 61 172.5t199.5 106.5t382.5 63v92q0 132 -59.5 194t-182.5 62q-122 0 -195 -65t-85 -187l-82 13q45 309 364 309q174 0 254 -96q38 -45 51 -107t13 -176v-361q0 -49 1 -71.5t6 -54.5t15 -45.5t30 -24t50 -10.5q21 0 45 4v-72q-27 -6 -57 -6q-80 0 -121 39 t-45 125q-116 -172 -357 -172q-134 0 -211 74.5t-77 193.5zM154 258q0 -95 61 -149t164 -54q145 0 237 86q59 54 79 115.5t20 189.5v80q-213 -19 -333.5 -50.5t-174 -83t-53.5 -134.5zM199 1225q55 141 166 141q40 0 90 -29l49 -28q43 -25 74 -25q60 0 108 86l51 -24 q-37 -69 -77.5 -101.5t-90.5 -32.5q-45 0 -96 31l-49 29q-37 22 -68 22q-34 0 -59.5 -22t-46.5 -72z" />
<glyph unicode="&#xe4;" horiz-adv-x="940" d="M72 254q0 106 61 172.5t199.5 106.5t382.5 63v92q0 132 -59.5 194t-182.5 62q-122 0 -195 -65t-85 -187l-82 13q45 309 364 309q174 0 254 -96q38 -45 51 -107t13 -176v-361q0 -49 1 -71.5t6 -54.5t15 -45.5t30 -24t50 -10.5q21 0 45 4v-72q-27 -6 -57 -6q-80 0 -121 39 t-45 125q-116 -172 -357 -172q-134 0 -211 74.5t-77 193.5zM154 258q0 -95 61 -149t164 -54q145 0 237 86q59 54 79 115.5t20 189.5v80q-213 -19 -333.5 -50.5t-174 -83t-53.5 -134.5zM225 1223v151h84v-151h-84zM625 1223v151h84v-151h-84z" />
<glyph unicode="&#xe5;" horiz-adv-x="940" d="M72 254q0 106 61 172.5t199.5 106.5t382.5 63v92q0 132 -59.5 194t-182.5 62q-122 0 -195 -65t-85 -187l-82 13q45 309 364 309q174 0 254 -96q38 -45 51 -107t13 -176v-361q0 -49 1 -71.5t6 -54.5t15 -45.5t30 -24t50 -10.5q21 0 45 4v-72q-27 -6 -57 -6q-80 0 -121 39 t-45 125q-116 -172 -357 -172q-134 0 -211 74.5t-77 193.5zM154 258q0 -95 61 -149t164 -54q145 0 237 86q59 54 79 115.5t20 189.5v80q-213 -19 -333.5 -50.5t-174 -83t-53.5 -134.5zM293 1286q0 70 46 115t122 45q71 0 116.5 -45t45.5 -115q0 -71 -46 -116.5t-118 -45.5 q-73 0 -119.5 45.5t-46.5 116.5zM350 1286q0 -47 31 -77.5t78 -30.5q46 0 76 30.5t30 77.5t-30 79t-76 32q-48 0 -78.5 -31t-30.5 -80z" />
<glyph unicode="&#xe6;" horiz-adv-x="1642" d="M72 254q0 106 61 172.5t199.5 106.5t382.5 63v92q0 132 -59.5 194t-182.5 62q-122 0 -195 -65t-85 -187l-82 13q45 309 364 309q261 0 303 -219q46 101 145 159t226 58q393 0 405 -510h-763q3 -232 103 -341.5t277 -109.5q117 0 195 57t107 164l75 -20 q-34 -122 -132 -198.5t-245 -76.5q-152 0 -257.5 71.5t-157.5 199.5q-45 -127 -148.5 -194.5t-247.5 -67.5q-134 0 -211 74.5t-77 193.5zM154 258q0 -95 61 -149t164 -54q145 0 237 86q56 51 77.5 124.5t21.5 180.5v80q-213 -19 -333.5 -50.5t-174 -83t-53.5 -134.5z M793 575h671q-8 164 -87 265.5t-234 101.5q-154 0 -246 -94t-104 -273z" />
<glyph unicode="&#xe7;" horiz-adv-x="911" d="M90 502q0 236 118.5 373t319.5 137q136 0 222.5 -71.5t117.5 -205.5l-82 -28q-41 233 -256 233q-169 0 -263.5 -116t-94.5 -326q0 -203 96.5 -325t263.5 -122q116 0 183 62.5t88 171.5l80 -25q-29 -116 -115.5 -196.5t-228.5 -86.5l-41 -108q33 8 55 8q66 0 105.5 -40.5 t39.5 -108.5q0 -71 -51.5 -117.5t-132.5 -46.5q-80 0 -133 53l37 51q44 -47 98 -47q49 0 80 29.5t31 75.5q0 43 -28.5 70.5t-72.5 27.5q-48 0 -90 -31l-20 33l61 154q-183 15 -285 152.5t-102 369.5z" />
<glyph unicode="&#xe8;" horiz-adv-x="1026" d="M90 510q0 234 118.5 368t323.5 134q394 0 406 -510h-764q0 -120 30 -209.5t84 -141t120.5 -76t146.5 -24.5q246 0 303 234l76 -27q-35 -130 -132.5 -205.5t-248.5 -75.5q-224 0 -343.5 140t-119.5 393zM176 575h672q-8 164 -87.5 265.5t-234.5 101.5q-152 0 -243.5 -95 t-106.5 -272zM346 1446h119l131 -295h-59z" />
<glyph unicode="&#xe9;" horiz-adv-x="1026" d="M90 510q0 234 118.5 368t323.5 134q394 0 406 -510h-764q0 -120 30 -209.5t84 -141t120.5 -76t146.5 -24.5q246 0 303 234l76 -27q-35 -130 -132.5 -205.5t-248.5 -75.5q-224 0 -343.5 140t-119.5 393zM176 575h672q-8 164 -87.5 265.5t-234.5 101.5q-152 0 -243.5 -95 t-106.5 -272zM469 1151l156 295h118l-215 -295h-59z" />
<glyph unicode="&#xea;" horiz-adv-x="1026" d="M90 510q0 234 118.5 368t323.5 134q394 0 406 -510h-764q0 -120 30 -209.5t84 -141t120.5 -76t146.5 -24.5q246 0 303 234l76 -27q-35 -130 -132.5 -205.5t-248.5 -75.5q-224 0 -343.5 140t-119.5 393zM176 575h672q-8 164 -87.5 265.5t-234.5 101.5q-152 0 -243.5 -95 t-106.5 -272zM289 1151l209 295h69l199 -295h-74l-160 223l-170 -223h-73z" />
<glyph unicode="&#xeb;" horiz-adv-x="1026" d="M90 510q0 234 118.5 368t323.5 134q394 0 406 -510h-764q0 -120 30 -209.5t84 -141t120.5 -76t146.5 -24.5q246 0 303 234l76 -27q-35 -130 -132.5 -205.5t-248.5 -75.5q-224 0 -343.5 140t-119.5 393zM176 575h672q-8 164 -87.5 265.5t-234.5 101.5q-152 0 -243.5 -95 t-106.5 -272zM287 1223v151h84v-151h-84zM686 1223v151h84v-151h-84z" />
<glyph unicode="&#xec;" horiz-adv-x="382" d="M10 1446h119l131 -295h-59zM152 0v991h79v-991h-79z" />
<glyph unicode="&#xed;" horiz-adv-x="382" d="M115 1151l155 295h119l-215 -295h-59zM152 0v991h79v-991h-79z" />
<glyph unicode="&#xee;" horiz-adv-x="382" d="M-47 1151l209 295h69l199 -295h-74l-159 223l-170 -223h-74zM152 0v991h79v-991h-79z" />
<glyph unicode="&#xef;" horiz-adv-x="382" d="M-49 1223v151h84v-151h-84zM152 0v991h79v-991h-79zM350 1223v151h84v-151h-84z" />
<glyph unicode="&#xf0;" horiz-adv-x="1050" d="M90 506q0 236 122.5 372t334.5 136q122 0 213 -74q-28 52 -60 100t-54.5 76t-61.5 74l-303 -100l-25 59l283 90q-26 32 -86 91t-88 81l53 47q107 -90 196 -192l222 73l24 -57l-196 -65q301 -363 301 -732q0 -234 -119.5 -371t-321.5 -137q-201 0 -317.5 143t-116.5 386z M172 518q0 -216 94 -341.5t258 -125.5q166 0 262.5 114.5t96.5 326.5q0 208 -94.5 328t-251.5 120q-164 0 -264.5 -113.5t-100.5 -308.5z" />
<glyph unicode="&#xf1;" horiz-adv-x="1028" d="M152 0v991h79v-196q53 103 143 157t199 54q163 0 242 -97q36 -44 53 -107t17 -165v-637h-80v614q0 97 -12.5 153t-44.5 95q-57 68 -187 68q-66 0 -132.5 -30t-113.5 -91q-49 -66 -66.5 -135.5t-17.5 -153.5v-520h-79zM256 1225q56 141 166 141q40 0 90 -29l49 -28 q43 -25 74 -25q60 0 108 86l52 -24q-37 -69 -77.5 -101.5t-90.5 -32.5q-46 0 -97 31l-49 29q-37 22 -67 22q-67 0 -107 -94z" />
<glyph unicode="&#xf2;" horiz-adv-x="1054" d="M90 504q0 235 123 371.5t328 136.5q197 0 310.5 -139.5t113.5 -383.5q0 -231 -120 -371.5t-315 -140.5q-207 0 -323.5 144t-116.5 383zM172 518q0 -215 97 -341t257 -126q163 0 260 115.5t97 320.5q0 212 -94 332.5t-252 120.5q-164 0 -264.5 -113.5t-100.5 -308.5z M352 1446h119l131 -295h-59z" />
<glyph unicode="&#xf3;" horiz-adv-x="1054" d="M90 504q0 235 123 371.5t328 136.5q197 0 310.5 -139.5t113.5 -383.5q0 -231 -120 -371.5t-315 -140.5q-207 0 -323.5 144t-116.5 383zM172 518q0 -215 97 -341t257 -126q163 0 260 115.5t97 320.5q0 212 -94 332.5t-252 120.5q-164 0 -264.5 -113.5t-100.5 -308.5z M459 1151l155 295h119l-215 -295h-59z" />
<glyph unicode="&#xf4;" horiz-adv-x="1054" d="M90 504q0 235 123 371.5t328 136.5q197 0 310.5 -139.5t113.5 -383.5q0 -231 -120 -371.5t-315 -140.5q-207 0 -323.5 144t-116.5 383zM172 518q0 -215 97 -341t257 -126q163 0 260 115.5t97 320.5q0 212 -94 332.5t-252 120.5q-164 0 -264.5 -113.5t-100.5 -308.5z M293 1151l209 295h69l199 -295h-74l-159 223l-170 -223h-74z" />
<glyph unicode="&#xf5;" horiz-adv-x="1054" d="M90 504q0 235 123 371.5t328 136.5q197 0 310.5 -139.5t113.5 -383.5q0 -231 -120 -371.5t-315 -140.5q-207 0 -323.5 144t-116.5 383zM172 518q0 -215 97 -341t257 -126q163 0 260 115.5t97 320.5q0 212 -94 332.5t-252 120.5q-164 0 -264.5 -113.5t-100.5 -308.5z M260 1225q56 141 166 141q40 0 90 -29l49 -28q43 -25 74 -25q61 0 109 86l51 -24q-37 -69 -77.5 -101.5t-90.5 -32.5q-45 0 -96 31l-50 29q-37 22 -67 22q-67 0 -107 -94z" />
<glyph unicode="&#xf6;" horiz-adv-x="1054" d="M90 504q0 235 123 371.5t328 136.5q197 0 310.5 -139.5t113.5 -383.5q0 -231 -120 -371.5t-315 -140.5q-207 0 -323.5 144t-116.5 383zM172 518q0 -215 97 -341t257 -126q163 0 260 115.5t97 320.5q0 212 -94 332.5t-252 120.5q-164 0 -264.5 -113.5t-100.5 -308.5z M287 1223v151h84v-151h-84zM686 1223v151h84v-151h-84z" />
<glyph unicode="&#xf7;" horiz-adv-x="1482" d="M199 580v69h1085v-69h-1085zM696 223v144h88v-144h-88zM696 864v144h88v-144h-88z" />
<glyph unicode="&#xf8;" horiz-adv-x="1054" d="M90 504q0 235 123 371.5t328 136.5q171 0 280 -109l97 121l53 -37l-107 -133q101 -141 101 -365q0 -231 -120 -371.5t-315 -140.5q-172 0 -286 105l-94 -119l-50 39l101 125q-111 138 -111 377zM172 518q0 -194 84 -321l516 645q-88 98 -235 98q-164 0 -264.5 -113.5 t-100.5 -308.5zM295 145q94 -94 231 -94q163 0 260 115.5t97 320.5q0 185 -72 301z" />
<glyph unicode="&#xf9;" horiz-adv-x="1036" d="M152 356v635h79v-612q0 -144 39 -215q57 -103 211 -103q153 0 238 111q86 113 86 326v493h80v-991h-80v197q-55 -113 -140.5 -162t-203.5 -49q-190 0 -264 133q-45 83 -45 237zM332 1446h119l131 -295h-60z" />
<glyph unicode="&#xfa;" horiz-adv-x="1036" d="M152 356v635h79v-612q0 -144 39 -215q57 -103 211 -103q153 0 238 111q86 113 86 326v493h80v-991h-80v197q-55 -113 -140.5 -162t-203.5 -49q-190 0 -264 133q-45 83 -45 237zM449 1151l155 295h119l-215 -295h-59z" />
<glyph unicode="&#xfb;" horiz-adv-x="1036" d="M152 356v635h79v-612q0 -144 39 -215q57 -103 211 -103q153 0 238 111q86 113 86 326v493h80v-991h-80v197q-55 -113 -140.5 -162t-203.5 -49q-190 0 -264 133q-45 83 -45 237zM297 1151l209 295h69l199 -295h-74l-159 223l-170 -223h-74z" />
<glyph unicode="&#xfc;" horiz-adv-x="1036" d="M152 356v635h79v-612q0 -144 39 -215q57 -103 211 -103q153 0 238 111q86 113 86 326v493h80v-991h-80v197q-55 -113 -140.5 -162t-203.5 -49q-190 0 -264 133q-45 83 -45 237zM279 1223v151h83v-151h-83zM678 1223v151h84v-151h-84z" />
<glyph unicode="&#xfd;" horiz-adv-x="854" d="M20 991h89q244 -643 335 -915q88 257 322 915h88l-448 -1218q-49 -132 -101.5 -175.5t-140.5 -43.5q-50 0 -94 18v78q51 -23 96 -23q56 0 89 28t69 124l77 209zM395 1151l156 295h119l-215 -295h-60z" />
<glyph unicode="&#xfe;" horiz-adv-x="1040" d="M152 -430v1876h79v-655q51 110 139 162.5t201 52.5q177 0 278 -138.5t101 -380.5q0 -241 -103 -372t-292 -131q-237 0 -328 217v-631h-75zM231 514q0 -217 86 -340t238 -123q148 0 229.5 116.5t81.5 328.5q0 204 -82.5 324t-222.5 120q-148 0 -239 -117.5t-91 -308.5z " />
<glyph unicode="&#xff;" horiz-adv-x="854" d="M20 991h89q244 -643 335 -915q88 257 322 915h88l-448 -1218q-49 -132 -101.5 -175.5t-140.5 -43.5q-50 0 -94 18v78q51 -23 96 -23q56 0 89 28t69 124l77 209zM193 1223v151h83v-151h-83zM592 1223v151h84v-151h-84z" />
<glyph unicode="&#x152;" horiz-adv-x="2236" d="M104 735q0 339 161 537t444 198q368 0 505 -344v320h889v-78h-807v-584h732v-77h-732v-629h858v-78h-940v319q-63 -163 -194 -253.5t-303 -90.5q-152 0 -270.5 57t-192.5 160t-112 240t-38 303zM190 741q0 -317 141.5 -502.5t385.5 -185.5q228 0 361.5 174.5t133.5 515.5 q0 306 -137 478t-370 172q-237 0 -376 -177.5t-139 -474.5z" />
<glyph unicode="&#x153;" horiz-adv-x="1818" d="M90 504q0 235 123 371.5t328 136.5q138 0 240 -76t143 -211q43 135 148 211t253 76q394 0 406 -510h-766q17 -451 383 -451q117 0 194.5 57t106.5 164l75 -20q-34 -122 -131.5 -198.5t-244.5 -76.5q-160 0 -268 75.5t-154 217.5q-51 -141 -153 -217t-243 -76 q-207 0 -323.5 144t-116.5 383zM172 518q0 -215 97 -341t257 -126q163 0 261 116t98 320q0 211 -94.5 332t-253.5 121q-164 0 -264.5 -113.5t-100.5 -308.5zM969 575h671q-8 164 -87 265.5t-234 101.5q-152 0 -243.5 -95t-106.5 -272z" />
<glyph unicode="&#x178;" horiz-adv-x="1138" d="M0 1446h98q370 -607 465 -778q82 144 479 778h97l-537 -846v-600h-84v600zM346 1583v150h88v-150h-88zM694 1583v150h86v-150h-86z" />
<glyph unicode="&#x17f;" horiz-adv-x="401" d="M154 0v1210q0 77 13.5 121t43.5 74q53 53 156 53q52 0 102 -16v-78q-51 22 -104 22q-67 0 -97 -34q-32 -38 -32 -140v-1212h-82z" />
<glyph unicode="&#x2c6;" horiz-adv-x="382" d="M-47 1151l209 295h69l199 -295h-74l-159 223l-170 -223h-74z" />
<glyph unicode="&#x2dc;" horiz-adv-x="382" d="M-78 1225q56 141 166 141q40 0 90 -29l49 -28q43 -25 74 -25q61 0 109 86l51 -24q-37 -69 -77.5 -101.5t-90.5 -32.5q-45 0 -96 31l-50 29q-37 22 -67 22q-67 0 -107 -94z" />
<glyph unicode="&#x2000;" horiz-adv-x="943" />
<glyph unicode="&#x2001;" horiz-adv-x="1886" />
<glyph unicode="&#x2002;" horiz-adv-x="943" />
<glyph unicode="&#x2003;" horiz-adv-x="1886" />
<glyph unicode="&#x2004;" horiz-adv-x="628" />
<glyph unicode="&#x2005;" horiz-adv-x="471" />
<glyph unicode="&#x2006;" horiz-adv-x="314" />
<glyph unicode="&#x2007;" horiz-adv-x="314" />
<glyph unicode="&#x2008;" horiz-adv-x="235" />
<glyph unicode="&#x2009;" horiz-adv-x="377" />
<glyph unicode="&#x200a;" horiz-adv-x="104" />
<glyph unicode="&#x2010;" horiz-adv-x="727" d="M100 549v78h527v-78h-527z" />
<glyph unicode="&#x2011;" horiz-adv-x="727" d="M100 549v78h527v-78h-527z" />
<glyph unicode="&#x2012;" horiz-adv-x="727" d="M100 549v78h527v-78h-527z" />
<glyph unicode="&#x2013;" horiz-adv-x="1083" d="M100 549v78h883v-78h-883z" />
<glyph unicode="&#x2014;" horiz-adv-x="1486" d="M100 549v78h1286v-78h-1286z" />
<glyph unicode="&#x2018;" horiz-adv-x="358" d="M131 1012v215q0 92 15 137.5t59 103.5l45 -30q-37 -37 -51.5 -79.5t-14.5 -115.5v-29h45v-202h-98z" />
<glyph unicode="&#x2019;" horiz-adv-x="358" d="M111 1020q37 37 51 79t14 115v29h-45v203h98v-215q0 -93 -14.5 -139t-58.5 -103z" />
<glyph unicode="&#x201a;" horiz-adv-x="358" d="M111 -223q37 37 51 79t14 115v29h-51v203h104v-215q0 -93 -14.5 -139t-58.5 -103z" />
<glyph unicode="&#x201c;" horiz-adv-x="624" d="M131 1012v215q0 92 15 137.5t59 103.5l45 -30q-37 -37 -51.5 -79.5t-14.5 -115.5v-29h52v-202h-105zM395 1012v215q0 92 15 137.5t59 103.5l45 -30q-37 -37 -51 -79.5t-14 -115.5v-29h51v-202h-105z" />
<glyph unicode="&#x201d;" horiz-adv-x="624" d="M111 1020q37 37 51 79t14 115v29h-51v203h104v-215q0 -93 -14.5 -139t-58.5 -103zM375 1020q37 37 51 79t14 115v29h-51v203h105v-215q0 -92 -15 -138t-59 -104z" />
<glyph unicode="&#x201e;" horiz-adv-x="624" d="M111 -223q37 37 51 79t14 115v29h-51v203h104v-215q0 -93 -14.5 -139t-58.5 -103zM375 -223q37 37 51 79t14 115v29h-51v203h105v-215q0 -92 -15 -138t-59 -104z" />
<glyph unicode="&#x2022;" horiz-adv-x="362" d="M63 475v236h236v-236h-236z" />
<glyph unicode="&#x2026;" horiz-adv-x="2168" d="M311 0v172h101v-172h-101zM1034 0v172h101v-172h-101zM1757 0v172h98v-172h-98z" />
<glyph unicode="&#x202f;" horiz-adv-x="377" />
<glyph unicode="&#x2030;" horiz-adv-x="2555" d="M84 967q0 212 87.5 335t236.5 123q147 0 232 -123.5t85 -336.5q0 -211 -86 -329t-238 -118t-234.5 118t-82.5 331zM160 973q0 -187 64 -290t177 -103q116 0 182 100t66 283q0 185 -65.5 293t-177.5 108t-179 -106t-67 -285zM586 0l528 1411h80l-530 -1411h-78zM1049 434 q0 212 87 335.5t236 123.5q147 0 232.5 -124t85.5 -337q0 -211 -86 -328.5t-238 -117.5t-234.5 117.5t-82.5 330.5zM1124 440q0 -186 64.5 -289.5t177.5 -103.5q116 0 182 100t66 283q0 185 -66 293t-178 108t-179 -106t-67 -285zM1831 434q0 212 87 335.5t236 123.5 q147 0 232.5 -124t85.5 -337q0 -211 -86 -328.5t-238 -117.5t-234.5 117.5t-82.5 330.5zM1907 440q0 -187 64 -290t177 -103q116 0 182 100t66 283q0 185 -66 293t-178 108t-178.5 -106t-66.5 -285z" />
<glyph unicode="&#x2039;" horiz-adv-x="530" d="M94 543l279 379l57 -45l-233 -334l233 -330l-57 -47z" />
<glyph unicode="&#x203a;" horiz-adv-x="530" d="M100 213l236 330l-236 334l58 45l278 -379l-278 -377z" />
<glyph unicode="&#x205f;" horiz-adv-x="471" />
<glyph unicode="&#x2070;" d="M84 1335q0 212 87.5 335.5t236.5 123.5q147 0 232 -124t85 -337q0 -211 -86 -328.5t-238 -117.5t-234.5 117.5t-82.5 330.5zM160 1341q0 -187 64 -290t177 -103q116 0 182 100t66 283q0 185 -65.5 293.5t-177.5 108.5t-179 -106.5t-67 -285.5z" />
<glyph unicode="&#x2074;" d="M74 1114v55l415 611h84v-600h170v-66h-170v-213h-69v213h-430zM162 1180h342q0 280 2 522q-38 -60 -344 -522z" />
<glyph unicode="&#x2075;" d="M119 1110l74 27q23 -189 210 -189q108 0 169 65.5t61 180.5q0 112 -57.5 176t-157.5 64q-150 0 -199 -125l-67 12l32 459h469v-66h-403l-25 -295q78 78 205 78q129 0 205 -81.5t76 -219.5q0 -142 -83.5 -225.5t-230.5 -83.5q-111 0 -183.5 58t-94.5 165z" />
<glyph unicode="&#x2076;" d="M104 1313q0 233 88 357t257 124q99 0 161.5 -48t96.5 -149l-72 -30q-19 81 -67.5 122.5t-121.5 41.5q-123 0 -192 -94t-78 -287q42 61 114 96t152 35q129 0 205 -81t76 -216t-82.5 -216t-220.5 -81q-316 0 -316 426zM195 1200q0 -115 63 -183.5t168 -68.5q100 0 160.5 64 t60.5 170q0 112 -57.5 173.5t-159.5 61.5t-168.5 -61.5t-66.5 -155.5z" />
<glyph unicode="&#x2077;" d="M78 1714v66h618v-51q-152 -201 -227 -390t-100 -438h-80q38 454 321 813h-532z" />
<glyph unicode="&#x2078;" d="M96 1139q0 80 44.5 138.5t129.5 84.5q-147 51 -147 205q0 101 80.5 164t208.5 63q121 0 196.5 -64t75.5 -167q0 -147 -156 -199q89 -20 137 -80.5t48 -148.5q0 -110 -86.5 -179t-225.5 -69q-136 0 -220.5 69.5t-84.5 182.5zM172 1139q0 -87 64 -138t172 -51 q105 0 167 49.5t62 135.5t-63.5 141t-167.5 55t-169 -54t-65 -138zM197 1567q0 -79 55.5 -126.5t150.5 -47.5q90 0 148.5 48t58.5 122q0 77 -56 122.5t-146 45.5q-96 0 -153.5 -44t-57.5 -120z" />
<glyph unicode="&#x2079;" d="M86 1497q0 134 83.5 215.5t219.5 81.5q156 0 236 -108.5t80 -319.5q0 -479 -343 -479q-105 0 -167.5 46.5t-96.5 147.5l72 31q34 -162 192 -162q127 0 194.5 91.5t76.5 283.5q-41 -61 -112 -94t-154 -33q-128 0 -204.5 81.5t-76.5 217.5zM162 1499q0 -113 57.5 -175 t159.5 -62t168.5 62.5t66.5 156.5q0 115 -63 182.5t-168 67.5q-100 0 -160.5 -63t-60.5 -169z" />
<glyph unicode="&#x207d;" horiz-adv-x="540" d="M133 1278q0 181 77.5 334.5t238.5 255.5l22 -33q-258 -215 -258 -555q0 -173 66.5 -327t191.5 -253l-27 -28q-81 46 -143.5 119t-97.5 157t-52.5 167.5t-17.5 162.5z" />
<glyph unicode="&#x207e;" horiz-adv-x="540" d="M70 705q258 215 258 555q0 173 -66.5 326.5t-191.5 252.5l26 29q81 -46 143.5 -119t98 -157t53 -167.5t17.5 -162.5q0 -181 -77.5 -334.5t-238.5 -255.5z" />
<glyph unicode="&#x2080;" d="M84 100q0 212 87.5 335.5t236.5 123.5q147 0 232 -124t85 -337q0 -211 -86 -328.5t-238 -117.5t-234.5 117.5t-82.5 330.5zM160 106q0 -187 64 -290t177 -103q116 0 182 100t66 283q0 185 -65.5 293.5t-177.5 108.5t-179 -106.5t-67 -285.5z" />
<glyph unicode="&#x2081;" d="M213 358v64q166 12 182 135h62v-891h-72v746q-57 -49 -172 -54z" />
<glyph unicode="&#x2082;" d="M113 305q0 116 80 185t213 69q137 0 214.5 -73t77.5 -201q0 -107 -58 -198.5t-214 -209.5q-96 -73 -209 -147q39 2 477 2v-66h-579v66l194 137q183 129 248.5 216.5t65.5 203.5q0 99 -60 153t-164 54q-99 0 -157 -50.5t-58 -140.5q0 -57 23 -125l-76 13q-18 44 -18 112z " />
<glyph unicode="&#x2083;" d="M111 -119l67 31q33 -197 225 -197q101 0 161.5 51.5t60.5 139.5q0 97 -69 140.5t-220 43.5q-32 0 -57 -2v62h40q134 0 206.5 47.5t72.5 136.5q0 76 -51.5 119t-138.5 43q-177 0 -211 -181l-68 23q26 107 98.5 164t184.5 57q120 0 189 -61t69 -166q0 -86 -55 -139.5 t-154 -67.5q108 -3 173.5 -60t65.5 -161q0 -110 -83.5 -181t-215.5 -71q-235 0 -290 229z" />
<glyph unicode="&#x2084;" d="M74 -66l415 611h84v-600h170v-66h-170v-213h-69v213h-430v55zM162 -55h342q0 280 2 522q-38 -60 -344 -522z" />
<glyph unicode="&#x2085;" d="M119 -125l74 27q23 -189 210 -189q108 0 169 65.5t61 180.5q0 112 -57.5 176t-157.5 64q-150 0 -199 -125l-67 12l32 459h469v-66h-403l-25 -295q78 78 205 78q129 0 205 -81.5t76 -219.5q0 -142 -83.5 -225.5t-230.5 -83.5q-111 0 -183.5 58t-94.5 165z" />
<glyph unicode="&#x2086;" d="M104 78q0 233 88 357t257 124q99 0 161.5 -48t96.5 -149l-72 -30q-19 81 -67.5 122.5t-121.5 41.5q-123 0 -192 -94t-78 -287q42 61 114 96t152 35q129 0 205 -81t76 -216t-82.5 -216t-220.5 -81q-316 0 -316 426zM195 -35q0 -115 63 -183.5t168 -68.5q100 0 160.5 64 t60.5 170q0 112 -57.5 173.5t-159.5 61.5t-168.5 -61.5t-66.5 -155.5z" />
<glyph unicode="&#x2087;" d="M78 479v66h618v-51q-152 -201 -227 -390t-100 -438h-80q38 454 321 813h-532z" />
<glyph unicode="&#x2088;" d="M96 -96q0 80 44.5 138.5t129.5 84.5q-147 51 -147 205q0 101 80.5 164t208.5 63q121 0 196.5 -64t75.5 -167q0 -147 -156 -199q89 -20 137 -80.5t48 -148.5q0 -110 -86.5 -179t-225.5 -69q-136 0 -220.5 69.5t-84.5 182.5zM172 -96q0 -87 64 -138t172 -51q105 0 167 49.5 t62 135.5t-63.5 141t-167.5 55t-169 -54t-65 -138zM197 332q0 -79 55.5 -126.5t150.5 -47.5q90 0 148.5 48t58.5 122q0 77 -56 122.5t-146 45.5q-96 0 -153.5 -44t-57.5 -120z" />
<glyph unicode="&#x2089;" d="M86 262q0 134 83.5 215.5t219.5 81.5q156 0 236 -108.5t80 -319.5q0 -479 -343 -479q-105 0 -167.5 46.5t-96.5 147.5l72 31q34 -162 192 -162q127 0 194.5 91.5t76.5 283.5q-41 -61 -112 -94t-154 -33q-128 0 -204.5 81.5t-76.5 217.5zM162 264q0 -113 57.5 -175 t159.5 -62t168.5 62.5t66.5 156.5q0 115 -63 182.5t-168 67.5q-100 0 -160.5 -63t-60.5 -169z" />
<glyph unicode="&#x208d;" horiz-adv-x="540" d="M133 43q0 181 77.5 334.5t238.5 255.5l22 -33q-258 -215 -258 -555q0 -173 66.5 -327t191.5 -253l-27 -28q-81 46 -143.5 119t-97.5 157t-52.5 167.5t-17.5 162.5z" />
<glyph unicode="&#x208e;" horiz-adv-x="540" d="M70 -530q258 215 258 555q0 173 -66.5 326.5t-191.5 252.5l26 29q81 -46 143.5 -119t98 -157t53 -167.5t17.5 -162.5q0 -181 -77.5 -334.5t-238.5 -255.5z" />
<glyph unicode="&#x20ac;" horiz-adv-x="1345" d="M133 559v66h139q-2 27 -2 77q0 64 4 107h-141v65h150q40 266 191.5 413t387.5 147q130 0 240.5 -50.5t165.5 -138.5l-54 -76q-47 90 -140 139.5t-214 49.5q-201 0 -327.5 -125t-163.5 -359h698v-65h-707q-4 -46 -4 -98q0 -50 4 -86h707v-66h-698q34 -239 164 -372.5 t327 -133.5q243 0 367 223l61 -59q-152 -240 -432 -240q-238 0 -389 152.5t-188 429.5h-146z" />
<glyph unicode="&#x2122;" horiz-adv-x="1538" d="M63 1386v60h547v-60h-243v-727h-62v727h-242zM680 659v787h82l166 -422q32 -79 100 -264q76 212 96 264l162 422h84v-787h-61v428q0 175 2 267q-18 -46 -52 -137.5t-57 -151.5l-153 -406h-45l-158 408q-46 117 -107 283q2 -92 2 -263v-428h-61z" />
<glyph unicode="&#x2153;" horiz-adv-x="1773" d="M188 1225v63q167 12 183 135h61v-891h-72v746q-56 -47 -172 -53zM532 0l529 1411h80l-531 -1411h-78zM1038 215l68 31q33 -197 225 -197q101 0 161 51t60 140q0 97 -68.5 140.5t-219.5 43.5q-33 0 -58 -2v61h41q134 0 206.5 48t72.5 137q0 76 -52 118.5t-139 42.5 q-177 0 -211 -180l-67 23q26 107 98 164t184 57q120 0 189 -61t69 -166q0 -86 -54.5 -139.5t-153.5 -67.5q108 -3 173.5 -60t65.5 -161q0 -110 -83.5 -181t-215.5 -71q-118 0 -191 59t-100 170z" />
<glyph unicode="&#x2154;" horiz-adv-x="1773" d="M94 1171q0 116 80 185t213 69q138 0 215.5 -73t77.5 -201q0 -107 -58 -198.5t-214 -209.5q-96 -73 -209 -147q39 2 477 2v-66h-580v66l195 137q183 129 248 216.5t65 203.5q0 99 -59.5 153t-163.5 54q-99 0 -157 -50.5t-58 -140.5q0 -59 22 -124l-75 12q-19 46 -19 112z M592 0l528 1411h80l-530 -1411h-78zM1077 215l68 31q33 -197 225 -197q101 0 161 51t60 140q0 97 -68.5 140.5t-219.5 43.5q-33 0 -58 -2v61h41q134 0 206.5 48t72.5 137q0 76 -52 118.5t-139 42.5q-177 0 -211 -180l-67 23q26 107 98 164t184 57q120 0 189 -61t69 -166 q0 -86 -55 -139.5t-154 -67.5q108 -3 174 -60t66 -161q0 -110 -83.5 -181t-215.5 -71q-118 0 -191 59t-100 170z" />
<glyph unicode="&#x215b;" horiz-adv-x="1773" d="M166 1225v63q166 12 182 135h62v-891h-72v746q-56 -47 -172 -53zM512 0l528 1411h80l-530 -1411h-78zM1053 238q0 80 44.5 138.5t129.5 84.5q-70 24 -109 76t-39 129q0 101 80.5 164t208.5 63q121 0 196.5 -64t75.5 -167q0 -147 -155 -199q89 -20 136.5 -81t47.5 -149 q0 -110 -86 -178.5t-225 -68.5q-136 0 -220.5 69.5t-84.5 182.5zM1128 238q0 -87 64 -138t172 -51q105 0 167 49t62 135t-63.5 141.5t-167.5 55.5t-169 -54t-65 -138zM1153 666q0 -78 56 -126t151 -48q90 0 148.5 48t58.5 122q0 77 -56 122t-147 45q-96 0 -153.5 -43.5 t-57.5 -119.5z" />
<glyph unicode="&#x215c;" horiz-adv-x="1773" d="M61 748l68 30q33 -196 225 -196q101 0 161 51t60 139q0 97 -68.5 140.5t-219.5 43.5q-33 0 -58 -2v62h41q134 0 206.5 47.5t72.5 136.5q0 76 -52 119t-139 43q-177 0 -211 -180l-67 22q26 107 98 164t184 57q120 0 189.5 -61.5t69.5 -165.5q0 -86 -55 -139.5t-154 -67.5 q108 -3 173.5 -60t65.5 -161q0 -110 -83.5 -181t-215.5 -71q-235 0 -291 230zM569 0l529 1411h80l-531 -1411h-78zM1083 238q0 80 44.5 138.5t129.5 84.5q-147 51 -147 205q0 101 80.5 164t208.5 63q121 0 196.5 -64t75.5 -167q0 -147 -155 -199q89 -20 136.5 -81t47.5 -149 q0 -110 -86 -178.5t-225 -68.5q-136 0 -221 69.5t-85 182.5zM1159 238q0 -87 64 -138t172 -51q105 0 167 49t62 135t-63.5 141.5t-167.5 55.5t-169 -54t-65 -138zM1184 666q0 -78 56 -126t151 -48q90 0 148 48t58 122q0 77 -56 122t-146 45q-96 0 -153.5 -43.5t-57.5 -119.5 z" />
<glyph unicode="&#x215d;" horiz-adv-x="1773" d="M96 741l74 27q23 -188 211 -188q108 0 168.5 65t60.5 180q0 112 -57.5 176t-157.5 64q-149 0 -198 -125l-68 12l33 459h469v-65h-404l-24 -295q77 77 205 77q129 0 204.5 -81.5t75.5 -219.5q0 -142 -83 -225.5t-230 -83.5q-111 0 -184 58t-95 165zM578 0l528 1411h80 l-531 -1411h-77zM1073 238q0 80 44.5 138.5t129.5 84.5q-147 51 -147 205q0 101 80.5 164t208.5 63q121 0 196.5 -64t75.5 -167q0 -146 -156 -199q89 -20 137 -81t48 -149q0 -110 -86.5 -178.5t-225.5 -68.5q-136 0 -220.5 69.5t-84.5 182.5zM1149 238q0 -87 63.5 -138 t171.5 -51q105 0 167.5 49t62.5 135t-64 141.5t-168 55.5q-103 0 -168 -54t-65 -138zM1174 666q0 -79 55.5 -126.5t150.5 -47.5q90 0 148.5 48t58.5 122q0 77 -56 122t-147 45q-96 0 -153 -43.5t-57 -119.5z" />
<glyph unicode="&#x215e;" horiz-adv-x="1773" d="M98 1346v65h619v-51q-152 -202 -227.5 -391t-100.5 -437h-80q38 453 322 814h-533zM506 0l528 1411h80l-530 -1411h-78zM1018 238q0 80 44.5 138.5t129.5 84.5q-70 24 -109 76t-39 129q0 101 80.5 164t208.5 63q121 0 197 -64t76 -167q0 -146 -156 -199q89 -20 136.5 -81 t47.5 -149q0 -110 -86 -178.5t-225 -68.5q-136 0 -220.5 69.5t-84.5 182.5zM1094 238q0 -87 63.5 -138t171.5 -51q105 0 167.5 49t62.5 135t-64 141.5t-168 55.5q-103 0 -168 -54t-65 -138zM1118 666q0 -78 56 -126t151 -48q90 0 148.5 48t58.5 122q0 77 -56 122t-147 45 q-96 0 -153.5 -43.5t-57.5 -119.5z" />
<glyph unicode="&#x25fc;" horiz-adv-x="993" d="M0 0v993h993v-993h-993z" />
<glyph horiz-adv-x="1083" d="M92 700q0 347 118.5 540.5t336.5 193.5q217 0 332.5 -195.5t115.5 -544.5q0 -341 -120.5 -529t-337.5 -188q-218 0 -331.5 186.5t-113.5 536.5zM178 711q0 -318 91.5 -488t269.5 -170q179 0 274.5 167.5t95.5 471.5q0 320 -92.5 493t-271.5 173q-174 0 -270.5 -171 t-96.5 -476z" />
<glyph horiz-adv-x="1083" d="M262 1133v73q241 21 268 217h68v-1423h-82v1229q-94 -84 -254 -96z" />
<glyph horiz-adv-x="1083" d="M115 1032q0 182 119.5 292t318.5 110q198 0 312 -117t114 -318q0 -88 -20 -166.5t-53.5 -142.5t-90.5 -132t-116 -123t-146 -128q-112 -91 -309 -235q88 2 723 2v-74h-838v72l346 272q106 84 174 149.5t127.5 146t87 170.5t27.5 196q0 164 -94 258t-254 94 q-158 0 -252 -88.5t-94 -241.5q0 -71 32 -166l-92 17q-22 74 -22 153z" />
<glyph horiz-adv-x="1083" d="M106 326l78 34q56 -307 344 -307q154 0 246 91t92 231q0 319 -403 319q-82 0 -107 -2v78q23 -2 60 -2q192 0 301.5 81.5t109.5 231.5q0 130 -82 203.5t-213 73.5q-124 0 -207 -70.5t-110 -206.5l-78 27q36 157 142.5 241.5t259.5 84.5q171 0 270.5 -96t99.5 -261 q0 -139 -75 -222.5t-226 -119.5q153 -6 249.5 -101.5t96.5 -260.5q0 -174 -120 -285t-310 -111q-169 0 -278.5 94t-139.5 255z" />
<glyph horiz-adv-x="1083" d="M68 348v74l608 989h106v-993h252v-70h-252v-348h-80v348h-634zM160 418h542v588q0 170 7 327q-27 -46 -94 -161t-105 -177z" />
<glyph horiz-adv-x="1083" d="M137 317l82 39q36 -303 311 -303q161 0 255 109t94 301q0 190 -87 298.5t-237 108.5q-108 0 -184.5 -52t-112.5 -152l-76 14l47 731h656v-74h-584l-39 -542q110 151 311 151q180 0 287 -130.5t107 -348.5q0 -226 -119 -358t-322 -132q-157 0 -258.5 88.5t-130.5 251.5z " />
<glyph horiz-adv-x="1083" d="M123 664q0 376 122.5 573t362.5 197q140 0 226.5 -70.5t134.5 -220.5l-80 -41q-24 128 -97 191t-186 63q-195 0 -297 -166t-108 -520q53 123 159.5 189.5t239.5 66.5q181 0 287 -129t106 -346q0 -218 -115 -346t-311 -128q-219 0 -331.5 174t-112.5 513zM227 477 q0 -192 96 -308t252 -116q150 0 242 107t92 286q0 189 -87.5 296.5t-239.5 107.5q-153 0 -254 -107t-101 -266z" />
<glyph horiz-adv-x="1083" d="M96 1337v74h873v-70q-221 -332 -330.5 -637t-144.5 -704h-93q53 739 478 1337h-783z" />
<glyph horiz-adv-x="1083" d="M109 375q0 137 75.5 233t216.5 129q-120 32 -187 116.5t-67 221.5q0 160 112 259.5t292 99.5q172 0 278.5 -101.5t106.5 -265.5q0 -253 -264 -330q146 -19 225.5 -116t79.5 -250q0 -178 -120 -286t-318 -108q-194 0 -312 109t-118 289zM195 377q0 -149 95.5 -236.5 t256.5 -87.5q156 0 250 86t94 230q0 146 -95.5 238.5t-252.5 92.5q-154 0 -251 -90.5t-97 -232.5zM231 1075q0 -135 84.5 -218t225.5 -83q134 0 222.5 84t88.5 209q0 132 -85 211.5t-220 79.5q-144 0 -230 -76t-86 -207z" />
<glyph horiz-adv-x="1083" d="M90 963q0 217 116.5 344t309.5 127q220 0 332.5 -173t112.5 -511q0 -773 -482 -773q-148 0 -234.5 70.5t-133.5 222.5l79 41q49 -256 287 -256q200 0 300 165.5t106 522.5q-53 -123 -159.5 -189.5t-240.5 -66.5q-181 0 -287 129.5t-106 346.5zM174 967 q0 -193 86.5 -298.5t241.5 -105.5q153 0 253.5 107t100.5 266q0 192 -96 307t-252 115q-150 0 -242 -106t-92 -285z" />
<glyph horiz-adv-x="382" d="M150 1294v152h83v-152h-83zM152 0v991h79v-991h-79z" />
<glyph d="M84 967q0 212 87.5 335t236.5 123q147 0 232 -123.5t85 -336.5q0 -211 -86 -329t-238 -118t-234.5 118t-82.5 331zM160 973q0 -187 64 -290t177 -103q116 0 182 100t66 283q0 185 -65.5 293t-177.5 108t-179 -106t-67 -285z" />
<glyph d="M213 1225v63q166 12 182 135h62v-891h-72v746q-56 -47 -172 -53z" />
<glyph d="M113 1171q0 116 80 185t213 69q137 0 214.5 -73t77.5 -201q0 -107 -58 -198.5t-214 -209.5q-96 -73 -209 -147q39 2 477 2v-66h-579v66l194 137q183 129 248.5 216.5t65.5 203.5q0 99 -60 153t-164 54q-99 0 -157 -50.5t-58 -140.5q0 -56 23 -124l-76 12q-18 44 -18 112z " />
<glyph d="M111 748l67 30q33 -196 225 -196q101 0 161.5 51t60.5 139q0 97 -69 140.5t-220 43.5q-32 0 -57 -2v62h40q134 0 206.5 47.5t72.5 136.5q0 76 -51.5 119t-138.5 43q-177 0 -211 -180l-68 22q26 107 98.5 164t184.5 57q120 0 189 -61t69 -166q0 -86 -55 -139.5t-154 -67.5 q108 -3 173.5 -60t65.5 -161q0 -110 -83.5 -181t-215.5 -71q-234 0 -290 230z" />
<glyph d="M74 745v56l415 610h84v-600h170v-66h-170v-213h-69v213h-430zM162 811h342q0 280 2 522q-38 -60 -344 -522z" />
<glyph d="M119 741l74 27q23 -188 210 -188q108 0 169 65.5t61 179.5q0 112 -57.5 176t-157.5 64q-150 0 -199 -125l-67 12l32 459h469v-65h-403l-25 -295q77 77 205 77q129 0 205 -81.5t76 -219.5q0 -142 -83.5 -225.5t-230.5 -83.5q-111 0 -183.5 58t-94.5 165z" />
<glyph d="M104 944q0 233 88 357t257 124q99 0 161.5 -48t96.5 -148l-72 -31q-19 81 -67.5 122.5t-121.5 41.5q-123 0 -192 -94t-78 -287q42 61 114 96t152 35q129 0 205 -81t76 -216t-82.5 -216t-220.5 -81q-316 0 -316 426zM195 831q0 -115 63 -183t168 -68q100 0 160.5 63.5 t60.5 169.5q0 112 -57.5 174t-159.5 62t-168.5 -62t-66.5 -156z" />
<glyph d="M78 1346v65h618v-51q-152 -201 -227 -390t-100 -438h-80q38 455 321 814h-532z" />
<glyph d="M96 770q0 80 44.5 138.5t129.5 84.5q-147 51 -147 205q0 101 80.5 164t208.5 63q121 0 196.5 -64t75.5 -167q0 -146 -156 -199q89 -20 137 -80.5t48 -148.5q0 -110 -86.5 -179t-225.5 -69q-136 0 -220.5 69.5t-84.5 182.5zM172 770q0 -87 64 -137.5t172 -50.5 q105 0 167 49t62 135t-63.5 141.5t-167.5 55.5q-103 0 -168.5 -54.5t-65.5 -138.5zM197 1198q0 -79 55.5 -126.5t150.5 -47.5q90 0 148.5 48t58.5 122q0 77 -56 122.5t-146 45.5q-96 0 -153.5 -44t-57.5 -120z" />
<glyph d="M86 1128q0 134 83.5 215.5t219.5 81.5q156 0 236 -108.5t80 -319.5q0 -479 -343 -479q-105 0 -167.5 47t-96.5 148l72 30q34 -161 192 -161q127 0 194.5 91t76.5 283q-41 -61 -112 -94t-154 -33q-128 0 -204.5 81.5t-76.5 217.5zM162 1130q0 -113 57.5 -175t159.5 -62 t168.5 62.5t66.5 156.5q0 115 -63 182.5t-168 67.5q-100 0 -160.5 -63t-60.5 -169z" />
<glyph horiz-adv-x="270" d="M92 532v140h86v-140h-86z" />
<glyph horiz-adv-x="270" d="M72 406q29 25 40 50t11 66v10h-35v140h90v-140q0 -58 -12 -87.5t-47 -69.5z" />
<glyph horiz-adv-x="534" d="M78 858v66h379v-66h-379z" />
<glyph horiz-adv-x="540" d="M133 909q0 181 77.5 334.5t238.5 255.5l22 -33q-258 -215 -258 -555q0 -173 66.5 -326.5t191.5 -252.5l-27 -29q-81 46 -143.5 119t-97.5 157t-52.5 167.5t-17.5 162.5z" />
<glyph horiz-adv-x="540" d="M70 336q258 215 258 555q0 173 -66.5 326.5t-191.5 252.5l26 29q81 -46 143.5 -119t98 -157t53 -167.5t17.5 -162.5q0 -181 -77.5 -334.5t-238.5 -255.5z" />
<glyph horiz-adv-x="835" d="M82 750l68 41q43 -183 237 -195v373l-27 6q-239 57 -239 221q0 90 73.5 149.5t192.5 65.5v107h62v-107q103 -6 169.5 -48t106.5 -124l-61 -37q-34 76 -86 110.5t-129 39.5v-330l26 -6q135 -29 200.5 -83.5t65.5 -152.5q0 -105 -80 -171t-212 -74v-125h-62v122 q-126 7 -203.5 66t-101.5 152zM195 1198q0 -63 44.5 -100t147.5 -64v318q-84 -4 -138 -48t-54 -106zM449 596q104 7 161.5 55t57.5 125q0 71 -46 108.5t-173 69.5v-358z" />
<glyph horiz-adv-x="763" d="M133 846q0 129 69 210t187 95v109h62v-107q170 -8 225 -166l-72 -22q-15 67 -52 97.5t-101 33.5v-504q131 3 165 129l70 -19q-25 -70 -83 -119t-152 -53v-120h-62v122q-121 13 -188.5 96t-67.5 218zM205 844q0 -104 47 -170.5t137 -79.5v498q-88 -15 -136 -80t-48 -168z " />
<glyph horiz-adv-x="886" d="M68 616q0 46 34 74.5t93 28.5q71 0 155 -43q10 22 10 59q0 47 -45 183h-172v57h154q-49 153 -49 235q0 99 73 157t197 58q96 0 157 -40.5t97 -124.5l-67 -35q-27 71 -72 104t-119 33q-90 0 -140 -41t-50 -115q0 -14 2 -30t7 -40t8 -37t12.5 -47t11.5 -44l8 -33h291v-57 h-273l15 -48q24 -94 24 -127q0 -54 -22 -92l47 -24q87 -47 153 -47q57 0 88.5 36t42.5 113l70 -20q-35 -191 -197 -191q-102 0 -202 55l-37 21q-64 -76 -172 -76q-58 0 -95.5 27.5t-37.5 70.5zM135 618q0 -20 19.5 -32.5t52.5 -12.5q67 0 112 48q-76 41 -129 41 q-26 0 -40.5 -12t-14.5 -32z" />
<glyph horiz-adv-x="923" d="M63 1411h89q233 -342 307 -457q212 308 317 457h84l-268 -381h188v-57h-231l-55 -76v-18h286v-56h-286v-291h-74v291h-287v56h287v16l-51 78h-236v57h195z" />
<glyph horiz-adv-x="1003" d="M125 874v56h96q-2 18 -2 47l2 49h-96v55h102q29 164 136 254t272 90q92 0 170 -32t119 -90l-45 -62q-34 58 -98 89.5t-146 31.5q-131 0 -216.5 -73.5t-113.5 -207.5h479v-55h-487q-2 -20 -2 -51l2 -45h487v-56h-479q25 -139 112 -215.5t218 -76.5q168 0 250 137l55 -43 q-118 -158 -309 -158q-166 0 -273 93t-133 263h-100z" />
<glyph d="M84 434q0 212 87.5 335.5t236.5 123.5q147 0 232 -124t85 -337q0 -211 -86 -328.5t-238 -117.5t-234.5 117.5t-82.5 330.5zM160 440q0 -187 64 -290t177 -103q116 0 182 100t66 283q0 185 -65.5 293t-177.5 108t-179 -106t-67 -285z" />
<glyph d="M213 692v64q166 12 182 135h62v-891h-72v745q-56 -47 -172 -53z" />
<glyph d="M113 639q0 116 80 185t213 69q137 0 214.5 -73.5t77.5 -201.5q0 -107 -58 -198t-214 -209q-105 -80 -209 -148q58 3 477 3v-66h-579v66l194 137q183 129 248.5 216.5t65.5 203.5q0 98 -60 152t-164 54q-99 0 -157 -50t-58 -140q0 -57 23 -125l-76 12q-18 44 -18 113z" />
<glyph d="M111 215l67 31q33 -197 225 -197q101 0 161.5 51.5t60.5 139.5q0 97 -69 140.5t-220 43.5q-32 0 -57 -2v61h40q134 0 206.5 48t72.5 137q0 76 -51.5 118.5t-138.5 42.5q-177 0 -211 -180l-68 23q26 107 98.5 164t184.5 57q120 0 189 -61t69 -166q0 -86 -55 -139.5 t-154 -67.5q108 -3 173.5 -60t65.5 -161q0 -110 -83.5 -181t-215.5 -71q-235 0 -290 229z" />
<glyph d="M74 213v55l415 611h84v-600h170v-66h-170v-213h-69v213h-430zM162 279h342q0 280 2 522q-38 -60 -344 -522z" />
<glyph d="M119 209l74 27q23 -189 210 -189q108 0 169 65.5t61 180.5q0 112 -57.5 175.5t-157.5 63.5q-150 0 -199 -124l-67 12l32 459h469v-66h-403l-25 -295q78 78 205 78q129 0 205 -81.5t76 -219.5q0 -142 -83.5 -225.5t-230.5 -83.5q-111 0 -183.5 58t-94.5 165z" />
<glyph d="M104 412q0 233 88 357t257 124q99 0 161.5 -48t96.5 -149l-72 -30q-19 81 -67.5 122t-121.5 41q-253 0 -270 -380q42 61 114 96t152 35q129 0 205 -81t76 -216t-82.5 -216t-220.5 -81q-316 0 -316 426zM195 299q0 -115 63 -183.5t168 -68.5q100 0 160.5 64t60.5 170 q0 112 -57.5 173.5t-159.5 61.5t-168.5 -61.5t-66.5 -155.5z" />
<glyph d="M78 813v66h618v-52q-152 -201 -227 -390t-100 -437h-80q38 454 321 813h-532z" />
<glyph d="M96 238q0 80 44.5 138.5t129.5 84.5q-147 51 -147 205q0 101 80.5 164t208.5 63q121 0 196.5 -64t75.5 -167q0 -146 -156 -199q89 -20 137 -81t48 -149q0 -110 -86.5 -178.5t-225.5 -68.5q-136 0 -220.5 69.5t-84.5 182.5zM172 238q0 -87 64 -138t172 -51q105 0 167 49 t62 135t-63.5 141.5t-167.5 55.5t-169 -54t-65 -138zM197 666q0 -79 55.5 -126.5t150.5 -47.5q90 0 148.5 48t58.5 122q0 77 -56 122t-146 45q-96 0 -153.5 -43.5t-57.5 -119.5z" />
<glyph d="M86 596q0 134 83.5 215.5t219.5 81.5q156 0 236 -108.5t80 -319.5q0 -479 -343 -479q-105 0 -167.5 46.5t-96.5 147.5l72 31q34 -162 192 -162q127 0 194.5 91.5t76.5 283.5q-41 -61 -112 -94t-154 -33q-128 0 -204.5 81.5t-76.5 217.5zM162 598q0 -113 57.5 -175.5 t159.5 -62.5t168.5 63t66.5 157q0 115 -63 182t-168 67q-100 0 -160.5 -63t-60.5 -168z" />
<glyph horiz-adv-x="270" d="M92 0v139h86v-139h-86z" />
<glyph horiz-adv-x="270" d="M72 -127q29 25 40 50t11 67v10h-35v139h90v-139q0 -58 -12 -88t-47 -70z" />
<glyph horiz-adv-x="534" d="M78 326v65h379v-65h-379z" />
<glyph horiz-adv-x="540" d="M133 377q0 181 77.5 334.5t238.5 255.5l22 -33q-258 -215 -258 -555q0 -173 66.5 -327t191.5 -253l-27 -28q-81 46 -143.5 119t-97.5 157t-52.5 167.5t-17.5 162.5z" />
<glyph horiz-adv-x="540" d="M70 -197q258 215 258 555q0 173 -66.5 327t-191.5 253l26 29q81 -46 143.5 -119.5t98 -157.5t53 -167.5t17.5 -162.5q0 -181 -77.5 -334t-238.5 -255z" />
<glyph horiz-adv-x="835" d="M82 217l68 41q43 -183 237 -195v373l-27 6q-239 57 -239 222q0 90 73.5 149.5t192.5 65.5v106h62v-106q103 -6 169.5 -48t106.5 -124l-61 -37q-34 76 -85.5 110t-129.5 39v-330l26 -6q135 -29 200.5 -83t65.5 -152q0 -105 -80 -171.5t-212 -74.5v-125h-62v123 q-126 7 -203.5 65.5t-101.5 151.5zM195 666q0 -63 44.5 -100t147.5 -64v317q-84 -4 -138 -47.5t-54 -105.5zM449 63q104 7 161.5 55.5t57.5 125.5q0 71 -46 108.5t-173 69.5v-359z" />
<glyph horiz-adv-x="763" d="M133 313q0 129 69 210t187 95v109h62v-106q170 -8 225 -166l-72 -23q-15 67 -52 97.5t-101 33.5v-504q131 3 165 129l70 -18q-25 -70 -83 -119t-152 -53v-121h-62v123q-121 13 -188.5 95.5t-67.5 217.5zM205 311q0 -104 47 -170.5t137 -79.5v498q-88 -15 -136 -80 t-48 -168z" />
<glyph horiz-adv-x="886" d="M68 84q0 46 34 74t93 28q71 0 155 -43q10 22 10 60q0 46 -45 182h-172v57h154q-49 153 -49 236q0 99 73 157t197 58q96 0 157 -41t97 -125l-67 -35q-27 71 -72 104t-119 33q-91 0 -140.5 -40.5t-49.5 -114.5q0 -39 41 -199l8 -33h291v-57h-273l15 -47q24 -95 24 -127 q0 -54 -22 -92l47 -25q87 -47 153 -47q57 0 88.5 36.5t42.5 113.5l70 -21q-34 -190 -197 -190q-102 0 -202 55l-37 20q-63 -75 -172 -75q-58 0 -95.5 27.5t-37.5 70.5zM135 86q0 -20 19.5 -32.5t52.5 -12.5q68 0 112 47q-76 41 -129 41q-55 0 -55 -43z" />
<glyph horiz-adv-x="923" d="M63 879h89q233 -342 307 -457q212 308 317 457h84l-268 -381h188v-58h-231l-55 -75v-19h286v-55h-286v-291h-74v291h-287v55h287v16l-51 78h-236v58h195z" />
<glyph horiz-adv-x="1003" d="M125 342v55h96q-2 18 -2 47l2 50h-96v55h102q29 164 136 254t272 90q95 0 171.5 -32.5t117.5 -90.5l-45 -61q-33 58 -97 89t-147 31q-131 0 -216.5 -73t-113.5 -207h479v-55h-487q-2 -21 -2 -52l2 -45h487v-55h-479q25 -139 112 -216t218 -77q168 0 250 137l55 -43 q-117 -157 -309 -157q-166 0 -273 93t-133 263h-100z" />
<glyph horiz-adv-x="270" d="M92 901v139h86v-139h-86z" />
<glyph horiz-adv-x="270" d="M72 774q29 25 40 50t11 67v10h-35v139h90v-139q0 -58 -12 -88t-47 -70z" />
<glyph horiz-adv-x="534" d="M78 1227v65h379v-65h-379z" />
<glyph horiz-adv-x="835" d="M82 1118l68 41q43 -182 237 -194v372l-27 6q-239 57 -239 222q0 90 73.5 149.5t192.5 65.5v106h62v-106q103 -6 169.5 -48t106.5 -124l-61 -37q-34 76 -85.5 110t-129.5 39v-329l26 -7q135 -29 200.5 -83t65.5 -152q0 -105 -80 -171.5t-212 -74.5v-125h-62v123 q-126 7 -203.5 65.5t-101.5 151.5zM195 1567q0 -63 44.5 -100t147.5 -64v317q-84 -4 -138 -47.5t-54 -105.5zM449 965q104 7 161.5 55t57.5 125q0 71 -46 108.5t-173 69.5v-358z" />
<glyph horiz-adv-x="763" d="M133 1214q0 130 69 211t187 95v108h62v-106q170 -8 225 -166l-72 -23q-15 67 -52 97.5t-101 33.5v-503q131 3 165 129l70 -19q-25 -70 -83 -119t-152 -53v-121h-62v123q-121 13 -188.5 95.5t-67.5 217.5zM205 1212q0 -104 47 -170t137 -79v497q-88 -15 -136 -80t-48 -168 z" />
<glyph horiz-adv-x="886" d="M68 985q0 46 34 74t93 28q71 0 155 -43q10 22 10 60q0 46 -45 182h-172v57h154q-49 153 -49 236q0 99 73 157t197 58q96 0 157 -41t97 -125l-67 -35q-27 71 -72 104.5t-119 33.5q-90 0 -140 -41t-50 -115q0 -39 41 -199l8 -33h291v-57h-273l15 -47q24 -95 24 -127 q0 -54 -22 -92l47 -25q87 -47 153 -47q57 0 88.5 36.5t42.5 113.5l70 -21q-34 -190 -197 -190q-102 0 -202 55l-37 21q-64 -76 -172 -76q-58 0 -95.5 27.5t-37.5 70.5zM135 987q0 -20 19.5 -32.5t52.5 -12.5q68 0 112 47q-76 41 -129 41q-55 0 -55 -43z" />
<glyph horiz-adv-x="923" d="M63 1780h89q233 -342 307 -457q212 308 317 457h84l-268 -381h188v-58h-231l-55 -75v-19h286v-55h-286v-291h-74v291h-287v55h287v17l-51 77h-236v58h195z" />
<glyph horiz-adv-x="1003" d="M125 1243v55h96q-2 19 -2 48l2 49h-96v55h102q29 164 136 254t272 90q92 0 170 -32.5t119 -90.5l-45 -61q-34 58 -98 89.5t-146 31.5q-131 0 -216.5 -73.5t-113.5 -207.5h479v-55h-487q-2 -21 -2 -52l2 -45h487v-55h-479q25 -139 112 -216t218 -77q168 0 250 137l55 -43 q-117 -157 -309 -157q-166 0 -273 93t-133 263h-100z" />
<glyph horiz-adv-x="270" d="M92 -195h86v-139h-86v139z" />
<glyph horiz-adv-x="270" d="M72 -461q29 25 40 50t11 67v10h-35v139h90v-139q0 -58 -12 -88t-47 -70z" />
<glyph horiz-adv-x="534" d="M78 -8v65h379v-65h-379z" />
<glyph horiz-adv-x="835" d="M82 -117l68 41q43 -182 237 -194v372l-27 7q-239 57 -239 221q0 90 73.5 149.5t192.5 65.5v106h62v-106q103 -6 169.5 -48t106.5 -124l-61 -37q-34 76 -85.5 110t-129.5 39v-329l26 -6q135 -29 200.5 -83.5t65.5 -152.5q0 -105 -80 -171.5t-212 -74.5v-125h-62v123 q-126 7 -203.5 65.5t-101.5 151.5zM195 332q0 -63 44.5 -100t147.5 -64v317q-84 -4 -138 -47.5t-54 -105.5zM449 88v-358q104 7 161.5 55t57.5 125q0 71 -46 108.5t-173 69.5z" />
<glyph horiz-adv-x="763" d="M133 -20q0 129 69 210t187 95v108h62v-106q170 -8 225 -166l-72 -23q-15 67 -52 97.5t-101 33.5v-503q131 3 165 129l70 -19q-25 -70 -83 -119t-152 -53v-121h-62v123q-121 13 -188.5 96t-67.5 218zM205 -23q0 -104 47 -170t137 -79v497q-88 -15 -136 -80t-48 -168z" />
<glyph horiz-adv-x="886" d="M68 -250q0 46 34 74.5t93 28.5q71 0 155 -43q10 22 10 59q0 46 -45 182h-172v58h154q-49 153 -49 235q0 99 73 157t197 58q96 0 157 -41t97 -125l-67 -35q-27 71 -72 104.5t-119 33.5q-90 0 -140 -41t-50 -115q0 -39 41 -199l8 -32h291v-58h-273l15 -47q24 -95 24 -127 q0 -54 -22 -92l47 -25q87 -47 153 -47q57 0 88.5 36.5t42.5 113.5l70 -21q-34 -190 -197 -190q-102 0 -202 55l-37 21q-64 -76 -172 -76q-58 0 -95.5 27.5t-37.5 70.5zM135 -248q0 -20 19.5 -32.5t52.5 -12.5q68 0 112 47q-76 41 -129 41q-55 0 -55 -43z" />
<glyph horiz-adv-x="923" d="M63 545h89q233 -342 307 -457q212 308 317 457h84l-268 -381h188v-58h-231l-55 -75v-19h286v-55h-286v-291h-74v291h-287v55h287v17l-51 77h-236v58h195z" />
<glyph horiz-adv-x="1003" d="M125 8v55h96q-2 19 -2 48l2 49h-96v55h102q29 164 136 254t272 90q92 0 170 -32.5t119 -90.5l-45 -61q-34 58 -98 89.5t-146 31.5q-131 0 -216.5 -73.5t-113.5 -207.5h479v-55h-487q-2 -20 -2 -51l2 -46h487v-55h-479q25 -139 112 -216t218 -77q167 0 250 138l55 -43 q-118 -158 -309 -158q-166 0 -273 93t-133 263h-100z" />
<glyph horiz-adv-x="1099" d="M92 700q0 347 120 540.5t341 193.5q220 0 337.5 -195.5t117.5 -544.5q0 -341 -122.5 -529t-342.5 -188q-221 0 -336 186.5t-115 536.5zM178 711q0 -318 93 -488t274 -170q182 0 279.5 167.5t97.5 471.5q0 320 -94 493t-277 173q-178 0 -275.5 -170.5t-97.5 -476.5z" />
<glyph horiz-adv-x="784" d="M139 1133v73q233 21 260 217h68v-1423h-82v1229q-94 -84 -246 -96z" />
<glyph horiz-adv-x="1073" d="M117 1032q0 183 116 292.5t314 109.5q196 0 303.5 -116t107.5 -319q0 -88 -19 -166t-51.5 -142.5t-87.5 -131.5t-114.5 -124t-144.5 -128q-139 -113 -301 -235q88 2 716 2v-74h-831v72l338 272q83 67 140.5 120t111.5 117t85.5 126t50.5 137.5t19 161.5q0 166 -87.5 259 t-245.5 93q-157 0 -247.5 -87.5t-90.5 -240.5q0 -78 32 -168l-92 17q-22 74 -22 153z" />
<glyph horiz-adv-x="1083" d="M106 326l78 34q56 -307 344 -307q154 0 246 91t92 231q0 319 -403 319q-82 0 -107 -2v78q23 -2 60 -2q192 0 301.5 81.5t109.5 231.5q0 130 -82 203.5t-213 73.5q-124 0 -207 -70.5t-110 -206.5l-78 27q36 157 142.5 241.5t259.5 84.5q171 0 270.5 -96t99.5 -261 q0 -139 -75 -222.5t-226 -119.5q153 -6 249.5 -101.5t96.5 -260.5q0 -174 -120 -285t-310 -111q-169 0 -278.5 94t-139.5 255z" />
<glyph horiz-adv-x="1073" d="M68 348v74l608 989h106v-993h252v-70h-252v-348h-80v348h-634zM160 418h542v588q0 170 7 327q-27 -46 -94 -161t-105 -177z" />
<glyph horiz-adv-x="1083" d="M137 317l82 39q36 -303 311 -303q161 0 255 109t94 301q0 190 -87 298.5t-237 108.5q-108 0 -184.5 -52t-112.5 -152l-76 14l47 731h656v-74h-584l-39 -542q110 151 311 151q180 0 287 -130.5t107 -348.5q0 -226 -119 -358t-322 -132q-157 0 -258.5 88.5t-130.5 251.5z " />
<glyph horiz-adv-x="1083" d="M123 664q0 376 122.5 573t362.5 197q140 0 226.5 -71.5t134.5 -221.5l-80 -41q-24 128 -97 192t-186 64q-195 0 -297 -166t-108 -520q53 123 159.5 189.5t239.5 66.5q181 0 287 -129t106 -346q0 -218 -115 -346t-311 -128q-219 0 -331.5 174t-112.5 513zM227 477 q0 -192 96 -308t252 -116q150 0 242 107t92 286q0 189 -87.5 296.5t-239.5 107.5q-153 0 -254 -107t-101 -266z" />
<glyph horiz-adv-x="925" d="M37 1337v74h805v-70q-213 -319 -311 -622t-134 -719h-92q56 787 447 1337h-715z" />
<glyph horiz-adv-x="1083" d="M109 375q0 137 75.5 233t216.5 129q-120 32 -187 116.5t-67 221.5q0 160 112 259.5t292 99.5q172 0 278.5 -101.5t106.5 -265.5q0 -253 -264 -330q146 -19 225.5 -116t79.5 -250q0 -178 -120 -286t-318 -108q-194 0 -312 109t-118 289zM195 377q0 -149 95.5 -236.5 t256.5 -87.5q156 0 250 86t94 230q0 146 -95.5 238.5t-252.5 92.5q-154 0 -251 -90.5t-97 -232.5zM231 1075q0 -135 84.5 -218t225.5 -83q134 0 222.5 84t88.5 209q0 132 -85 211.5t-220 79.5q-144 0 -230 -76t-86 -207z" />
<glyph horiz-adv-x="1083" d="M90 963q0 217 116.5 344t309.5 127q220 0 332.5 -173t112.5 -511q0 -773 -482 -773q-148 0 -234.5 70.5t-133.5 222.5l79 41q49 -256 287 -256q200 0 300 165.5t106 522.5q-53 -123 -159.5 -189.5t-240.5 -66.5q-181 0 -287 129.5t-106 346.5zM174 967 q0 -193 86.5 -298.5t241.5 -105.5q153 0 253.5 107t100.5 266q0 192 -96 307t-252 115q-150 0 -242 -106t-92 -285z" />
<glyph horiz-adv-x="684" d="M133 678v43q54 27 73.5 46t37.5 58q18 43 18 246v180q0 151 20 225.5t74 120.5q61 54 172 70v-57q-56 -17 -94 -43q-54 -41 -72 -107t-18 -217v-160q0 -116 -4 -166.5t-16 -95.5q-22 -80 -111 -119q49 -27 72.5 -52t38.5 -68q20 -65 20 -263v-159q0 -102 7 -157t26 -95 q40 -86 151 -115v-57q-52 6 -100 24.5t-74 42.5q-54 51 -73 124t-19 225v180q0 121 -3 163.5t-13 77.5q-21 74 -113 105z" />
<glyph horiz-adv-x="684" d="M154 -207q56 17 94 43q54 41 72 107t18 217v159q0 116 4 167t16 96q22 79 111 118q-49 27 -72.5 52.5t-38.5 68.5q-20 65 -20 262v160q0 102 -7 157t-26 95q-40 86 -151 115v57q116 -14 174 -68q54 -51 73 -124t19 -224v-180q0 -121 3 -164t13 -78q11 -38 37 -62.5 t76 -41.5v-43q-54 -27 -73.5 -46t-37.5 -58q-18 -44 -18 -246v-180q0 -152 -20 -226.5t-74 -120.5q-60 -53 -172 -69v57z" />
<glyph horiz-adv-x="591" d="M182 -250v1903h310v-70h-224v-1767h224v-66h-310z" />
<glyph horiz-adv-x="591" d="M100 -184h224v1767h-224v70h310v-1903h-310v66z" />
<glyph horiz-adv-x="1486" d="M100 662v77h1286v-77h-1286z" />
<glyph horiz-adv-x="1083" d="M100 662v77h883v-77h-883z" />
<glyph horiz-adv-x="866" d="M94 707l279 378l57 -45l-233 -333l233 -330l-57 -47zM430 707l277 378l57 -45l-234 -333l234 -330l-57 -47z" />
<glyph horiz-adv-x="866" d="M100 377l234 330l-234 333l58 45l278 -378l-278 -377zM436 377l234 330l-234 333l58 45l276 -378l-276 -377z" />
<glyph horiz-adv-x="530" d="M94 707l279 378l57 -45l-233 -333l233 -330l-57 -47z" />
<glyph horiz-adv-x="530" d="M100 377l236 330l-236 333l58 45l278 -378l-278 -377z" />
<glyph horiz-adv-x="727" d="M100 662v77h527v-77h-527z" />
<glyph horiz-adv-x="759" d="M197 723q0 293 108.5 541t331.5 409l22 -33q-370 -347 -370 -913q0 -287 94 -538t272 -410l-22 -33q-114 73 -201.5 191t-137 253t-73.5 269.5t-24 263.5z" />
<glyph horiz-adv-x="757" d="M98 -221q371 348 371 913q0 286 -94.5 537.5t-272.5 410.5l23 33q114 -73 201.5 -191t137 -253t73.5 -269.5t24 -263.5q0 -293 -108.5 -541t-331.5 -409z" />
<glyph horiz-adv-x="358" d="M131 604v203h98v-203h-98z" />
</font>
</defs>
</svg>
